<svg xmlns="http://www.w3.org/2000/svg" viewBox="0 0 400 520" width="400" height="520">
  <title>Main Silver Faceplate</title>
  <defs>
    <!-- Main metallic gradient -->
    <linearGradient id="metal-bg" x1="0" y1="0" x2="0" y2="1">
      <stop offset="0%" stop-color="#ffffff"/>
      <stop offset="10%" stop-color="#e2e2e2"/>
      <stop offset="50%" stop-color="#f0f0f0"/>
      <stop offset="90%" stop-color="#c8c8c8"/>
      <stop offset="100%" stop-color="#a0a0a0"/>
    </linearGradient>

    <linearGradient id="metal-border" x1="0" y1="0" x2="0" y2="1">
      <stop offset="0%" stop-color="#ffffff"/>
      <stop offset="50%" stop-color="#aaaaaa"/>
      <stop offset="100%" stop-color="#666666"/>
    </linearGradient>

    <filter id="inset-shadow" x="-20%" y="-20%" width="140%" height="140%">
      <feOffset dx="0" dy="3"/>
      <feGaussianBlur stdDeviation="3" result="blur"/>
      <feComposite operator="out" in="SourceGraphic" in2="blur" result="inv"/>
      <feFlood flood-color="black" flood-opacity="0.5" result="color"/>
      <feComposite operator="in" in="color" in2="inv" result="shadow"/>
      <feMerge>
        <feMergeNode in="SourceGraphic"/>
        <feMergeNode in="shadow"/>
      </feMerge>
    </filter>

    <filter id="drop-shadow" x="-10%" y="-10%" width="120%" height="120%">
      <feDropShadow dx="0" dy="4" stdDeviation="4" flood-color="#000" flood-opacity="0.3"/>
    </filter>

    <!-- Cutout masks -->
    <mask id="cutouts">
      <rect x="0" y="0" width="400" height="520" fill="white" rx="40" ry="40"/>

      <!-- LCD Cutout -->
      <rect x="30" y="40" width="340" height="200" rx="15" ry="15" fill="black"/>

      <!-- Progress Bar Cutout -->
      <rect x="40" y="255" width="320" height="15" rx="7.5" ry="7.5" fill="black"/>

      <!-- D-Pad Cutouts -->
      <!-- Connecting trench -->
      <rect x="40" y="340" width="320" height="40" rx="20" ry="20" fill="black"/>
      <!-- Left Button -->
      <rect x="40" y="325" width="100" height="70" rx="35" ry="35" fill="black"/>
      <!-- Center Capsule -->
      <rect x="165" y="295" width="70" height="130" rx="35" ry="35" fill="black"/>
      <!-- Right Button -->
      <rect x="260" y="325" width="100" height="70" rx="35" ry="35" fill="black"/>
    </mask>
  </defs>

  <!-- Outer border -->
  <rect x="5" y="5" width="390" height="510" rx="40" ry="40" fill="url(#metal-border)" filter="url(#drop-shadow)"/>

  <!-- Main body with cutouts -->
  <rect x="7" y="7" width="386" height="506" rx="38" ry="38" fill="url(#metal-bg)" mask="url(#cutouts)"/>

  <!-- LCD Bezel Inner Shadow -->
  <rect x="30" y="40" width="340" height="200" rx="15" ry="15" fill="none" stroke="#666" stroke-width="2" filter="url(#inset-shadow)"/>
  <rect x="30" y="40" width="340" height="200" rx="15" ry="15" fill="none" stroke="#fff" stroke-width="1" transform="translate(0, 1)"/>

  <!-- Progress Bar Bezel Inner Shadow -->
  <rect x="40" y="255" width="320" height="15" rx="7.5" ry="7.5" fill="none" stroke="#666" stroke-width="2" filter="url(#inset-shadow)"/>
  <rect x="40" y="255" width="320" height="15" rx="7.5" ry="7.5" fill="none" stroke="#fff" stroke-width="1" transform="translate(0, 1)"/>

  <!-- D-Pad Trench Inner Shadow -->
  <!-- We just outline the entire combined shape -->
  <path d="M 75 325 L 140 325 
           A 35 35 0 0 0 165 295 
           A 35 35 0 0 1 235 295 
           A 35 35 0 0 0 260 325 
           L 325 325 
           A 35 35 0 0 1 325 395 
           L 260 395 
           A 35 35 0 0 0 235 425 
           A 35 35 0 0 1 165 425 
           A 35 35 0 0 0 140 395 
           L 75 395 
           A 35 35 0 0 1 75 325 Z" 
        fill="none" stroke="#666" stroke-width="2" filter="url(#inset-shadow)"/>

  <path d="M 75 325 L 140 325 
           A 35 35 0 0 0 165 295 
           A 35 35 0 0 1 235 295 
           A 35 35 0 0 0 260 325 
           L 325 325 
           A 35 35 0 0 1 325 395 
           L 260 395 
           A 35 35 0 0 0 235 425 
           A 35 35 0 0 1 165 425 
           A 35 35 0 0 0 140 395 
           L 75 395 
           A 35 35 0 0 1 75 325 Z" 
        fill="none" stroke="#fff" stroke-width="1" transform="translate(0, 1)"/>
</svg>
