<?xml version="1.0" encoding="UTF-8"?>
<!-- NextVWT Asset — Button SCAN | Generated by generate_assets.py -->
<svg xmlns="http://www.w3.org/2000/svg"
     width="85" height="50"
     viewBox="0 0 85 50">
  <defs>
    <linearGradient id="side-btn-bg-btn_scan" x1="0" y1="0" x2="0" y2="1">
      <stop offset="0%"   stop-color="#4a5066"/>
      <stop offset="100%" stop-color="#2a2d3e"/>
    </linearGradient>
    <linearGradient id="side-btn-gloss-btn_scan" x1="0" y1="0" x2="0" y2="1">
      <stop offset="0%"   stop-color="rgba(255,255,255,0.35)"/>
      <stop offset="100%" stop-color="rgba(255,255,255,0.0)"/>
    </linearGradient>
  </defs>

  <!-- Button body -->
  <path d="M 25 2 L 77 2 Q 83 2 83 25 Q 83 48 77 48 L 25 48 A 23 23 0 0 1 25 2 Z"
        fill="url(#side-btn-bg-btn_scan)"
        stroke="rgba(0,0,0,0.55)" stroke-width="1.2"/>

  <!-- Gloss -->
  <path d="M 25 2 L 77 2 Q 83 2 83 25 Q 83 48 77 48 L 25 48 A 23 23 0 0 1 25 2 Z" fill="url(#side-btn-gloss-btn_scan)"
        transform="scale(1, 0.38) translate(0, 3)"/>

  <!-- Bottom edge highlight (bevel) -->
  <path d="M 25 2 L 77 2 Q 83 2 83 25 Q 83 48 77 48 L 25 48 A 23 23 0 0 1 25 2 Z" fill="none"
        stroke="rgba(255,255,255,0.18)" stroke-width="1"
        transform="translate(0, 0.5)"/>

  <!-- Label -->
  <text x="42" y="31"
        font-family="'Outfit','Arial Black',sans-serif"
        font-size="14" font-weight="800" letter-spacing="0.5"
        text-anchor="middle" fill="white">SCAN</text>

  <!-- LED indicator -->
  <circle cx="75" cy="10" r="4.5" fill="#60a5fa" opacity="0.9" style="filter:drop-shadow(0 0 4px #60a5fa)"/>

</svg>
