<svg xmlns="http://www.w3.org/2000/svg" viewBox="0 0 100 100" width="100" height="100">
  <defs>
    <!-- Main body gradient -->
    <linearGradient id="starGrad" x1="0%" y1="0%" x2="0%" y2="100%">
      <stop offset="0%" stop-color="#D05050" />
      <stop offset="100%" stop-color="#A03030" />
    </linearGradient>
    
    <!-- Inner highlight gradient -->
    <linearGradient id="highlightGrad" x1="0%" y1="0%" x2="0%" y2="100%">
      <stop offset="0%" stop-color="#E57070" />
      <stop offset="100%" stop-color="#D05050" stop-opacity="0" />
    </linearGradient>
  </defs>

  <!-- The path of a 5-pointed star -->
  <!-- We use stroke-linejoin="round" to make the corners rounded -->
  <g transform="translate(50, 53)">
    <!-- Outer thick stroke for the border -->
    <path d="M 0 -35 L 11 -12 L 36 -8 L 18 10 L 22 35 L 0 23 L -22 35 L -18 10 L -36 -8 L -11 -12 Z" 
          fill="none" 
          stroke="#701515" 
          stroke-width="12" 
          stroke-linejoin="round" />
          
    <!-- Main fill with gradient -->
    <path d="M 0 -35 L 11 -12 L 36 -8 L 18 10 L 22 35 L 0 23 L -22 35 L -18 10 L -36 -8 L -11 -12 Z" 
          fill="url(#starGrad)" 
          stroke="url(#starGrad)" 
          stroke-width="8" 
          stroke-linejoin="round" />

    <!-- Inner highlight for 3D bevel effect -->
    <path d="M 0 -35 L 11 -12 L 36 -8 L 18 10 L 22 35 L 0 23 L -22 35 L -18 10 L -36 -8 L -11 -12 Z" 
          fill="none" 
          stroke="url(#highlightGrad)" 
          stroke-width="3" 
          stroke-linejoin="round" 
          transform="scale(0.85)" />
  </g>
</svg>