<?xml version="1.0" encoding="utf-8"?><svg fill="none" viewBox="0 0 512 512" xmlns="http://www.w3.org/2000/svg"><defs /><g transform="matrix(1,0,0,1,166.241,235.338)" id="Body"><g id="Group 2" transform="matrix(1,0,0,1,128.893,116.328)"><path stroke-linejoin="miter" stroke-linecap="butt" stroke-width="5" stroke-opacity="1" stroke="#a54c0f" fill="#ffc04a" fill-opacity="1" d="M89.789,-102.243C68.916,-103.828,51.811,-99.428,41.015,-95.592L-116.393,-13.563C-111.892,-1.258,-89.434,56.085,-26.605,86.203C-22.779,88.031,3.314,100.037,39.318,102.353C62.087,103.828,88.836,101.433,116.393,90.127L116.393,-50.609L116.393,-97.022C108.334,-99.616,99.443,-101.512,89.789,-102.243Z" /></g><g id="Group 1" transform="matrix(1,0,0,1,149.859,118.152)"><path fill="#fff5db" fill-opacity="1" d="M-95.426,-37.239C-91.061,-13.984,-76.755,42.519,-29.281,70.523C9.601,93.458,61.899,87.51,95.426,70.51L95.426,-52.432L95.426,-58.386C87.642,-64.731,78.275,-70.57,67.16,-74.691C16.546,-93.458,-38.983,-65.168,-38.149,-56.956C-37.96,-55.103,-34.863,-53.864,-32.051,-53.076C-56.623,-47.803,-76.278,-43.51,-88.582,-40.805L-95.426,-37.239Z" /></g></g><g id="Head outlines"><g transform="translate(223.523,199.066)"><animateTransform repeatCount="indefinite" type="translate" attributeName="transform" dur="3s" begin="0s" calcMode="spline" values="223.523 199.066; 223.523 199.066; 218.523 214.066; 218.523 214.066; 223.523 199.066" keyTimes="0; 0.578; 0.711; 0.889; 1" keySplines="0 0 1 1; 0.167 0.167 0.667 1; 0 0 1 1; 0.333 0 0.833 0.833" fill="freeze" /><g transform="rotate(10)"><animateTransform repeatCount="indefinite" type="rotate" attributeName="transform" dur="3s" begin="0s" calcMode="spline" values="10; 10; 0; 0; 10" keyTimes="0; 0.578; 0.711; 0.889; 1" keySplines="0 0 1 1; 0.167 0.167 0.667 1; 0.333 0 0.667 1; 0.333 0 0.833 0.833" fill="freeze" /><g transform="scale(1,1) translate(-191.014,-182.691)"><g transform="matrix(1,0,0,1,60.662,80.929)" id="Head fill"><g id="Group 1" transform="matrix(1,0,0,1,154.558,136.103)"><path fill="#ffc04a" fill-opacity="1" d="M44.036,93.261C81.022,70.149,125.362,23.675,139.126,-9.014C154.308,-45.073,148.764,-69.037,108.545,-93.62C89.651,-105.169,10.154,-135.853,-9.879,-133.621C-29.912,-131.388,-59.501,-116.326,-79.228,-104C-98.954,-91.674,-125.461,-71.683,-136.25,-54.656C-147.039,-37.628,-154.308,47.274,-152.211,69.318C-147.747,116.242,-128.639,131.732,-89.575,133.893C-54.159,135.852,7.049,116.372,44.036,93.261Z" /></g></g></g></g></g></g><g id="Head outlines"><g transform="translate(223.523,199.066)"><animateTransform repeatCount="indefinite" type="translate" attributeName="transform" dur="3s" begin="0s" calcMode="spline" values="223.523 199.066; 223.523 199.066; 218.523 214.066; 218.523 214.066; 223.523 199.066" keyTimes="0; 0.578; 0.711; 0.889; 1" keySplines="0 0 1 1; 0.167 0.167 0.667 1; 0 0 1 1; 0.333 0 0.833 0.833" fill="freeze" /><g transform="rotate(10)"><animateTransform repeatCount="indefinite" type="rotate" attributeName="transform" dur="3s" begin="0s" calcMode="spline" values="10; 10; 0; 0; 10" keyTimes="0; 0.578; 0.711; 0.889; 1" keySplines="0 0 1 1; 0.167 0.167 0.667 1; 0.333 0 0.667 1; 0.333 0 0.833 0.833" fill="freeze" /><g transform="scale(1,1) translate(-191.014,-182.691)"><g transform="matrix(1,0,0,1,72.697,148.022)" id="Cheecks"><g id="Group 1" transform="matrix(1,0,0,1,146.45,102.556)"><path fill="#fff5db" fill-opacity="1" d="M134.275,-101.645C106.233,-102.306,90.23,-95.102,90.23,-95.102C62.258,-22.724,23.21,-64.297,-20.368,-37.067C-63.944,-9.838,-43.697,43.482,-121.012,36.896C-121.012,36.896,-134.501,48.122,-146.2,73.615C-136.262,91.731,-119.202,98.924,-93.502,100.346C-58.086,102.305,3.122,82.825,40.109,59.714C77.095,36.602,121.435,-9.873,135.199,-42.562C145.187,-66.285,146.2,-84.772,134.275,-101.645Z" /></g></g></g></g></g></g><g id="Head outlines"><g transform="translate(223.523,199.066)"><animateTransform repeatCount="indefinite" type="translate" attributeName="transform" dur="3s" begin="0s" calcMode="spline" values="223.523 199.066; 223.523 199.066; 218.523 214.066; 218.523 214.066; 223.523 199.066" keyTimes="0; 0.578; 0.711; 0.889; 1" keySplines="0 0 1 1; 0.167 0.167 0.667 1; 0 0 1 1; 0.333 0 0.833 0.833" fill="freeze" /><g transform="rotate(10)"><animateTransform repeatCount="indefinite" type="rotate" attributeName="transform" dur="3s" begin="0s" calcMode="spline" values="10; 10; 0; 0; 10" keyTimes="0; 0.578; 0.711; 0.889; 1" keySplines="0 0 1 1; 0.167 0.167 0.667 1; 0.333 0 0.667 1; 0.333 0 0.833 0.833" fill="freeze" /><g transform="scale(1,1) translate(-191.014,-182.691)"><g id="Left ear"><g transform="translate(56.706,184.391)"><animateTransform repeatCount="indefinite" type="translate" attributeName="transform" dur="1.4s" begin="0.333s" calcMode="spline" values="56.706 184.391; 55.991 195.674; 56.706 184.391" keyTimes="0; 0.238; 1" keySplines="0.333 0 0.667 1; 0.333 0 0.833 0.833" fill="freeze" /><g transform="rotate(0)"><animateTransform repeatCount="indefinite" type="rotate" attributeName="transform" dur="1.4s" begin="0.333s" calcMode="spline" values="0; -12; 0" keyTimes="0; 0.238; 1" keySplines="0.333 0 0.667 1; 0.333 0 0.833 0.833" fill="freeze" /><g transform="scale(1,1) translate(-44.457,-52.152)"><g id="Group 3" transform="matrix(1,0,0,1,44.457,52.152)"><path fill="#ffc04a" fill-opacity="1" d="M44.206,-38.626C44.206,-38.626,10.567,-49.596,-20.688,-51.093C-37.575,-51.902,-44.206,-51.801,-42.389,-34.618C-40.26,-14.491,-29.923,20.878,10.376,51.902" /></g><g id="Group 2" transform="matrix(1,0,0,1,40.814,49.007)"><path fill="#fff5db" fill-opacity="1" d="M25.471,-14.998C24.894,-14.288,24.343,-13.575,23.827,-12.873C19.102,-6.459,13.083,13.804,13.316,37.187C-8.538,16.857,-25.471,-18.781,-24.996,-34.255C-24.996,-34.255,-11.737,-37.187,19.2,-22.35C13.123,-18.296,6.445,-12.276,5.502,-10.952C9.083,-10.394,15.213,-11.191,25.471,-14.998Z" /></g><g id="Group 1" transform="matrix(1,0,0,1,41.051,36.347)"><path stroke-linejoin="miter" stroke-linecap="round" stroke-width="3" stroke-opacity="1" stroke="#a54c0f" d="M-25.234,-21.595C-25.234,-21.595,-11.974,-24.526,18.963,-9.689C12.886,-5.636,6.206,0.384,5.264,1.708C8.845,2.265,14.975,1.469,25.234,-2.337C24.657,-1.627,24.186,-0.847,23.59,-0.212C19.835,3.785,16.451,13.549,14.902,24.526" /></g></g></g></g></g></g></g></g></g><g id="Head outlines"><g transform="translate(223.523,199.066)"><animateTransform repeatCount="indefinite" type="translate" attributeName="transform" dur="3s" begin="0s" calcMode="spline" values="223.523 199.066; 223.523 199.066; 218.523 214.066; 218.523 214.066; 223.523 199.066" keyTimes="0; 0.578; 0.711; 0.889; 1" keySplines="0 0 1 1; 0.167 0.167 0.667 1; 0 0 1 1; 0.333 0 0.833 0.833" fill="freeze" /><g transform="rotate(10)"><animateTransform repeatCount="indefinite" type="rotate" attributeName="transform" dur="3s" begin="0s" calcMode="spline" values="10; 10; 0; 0; 10" keyTimes="0; 0.578; 0.711; 0.889; 1" keySplines="0 0 1 1; 0.167 0.167 0.667 1; 0.333 0 0.667 1; 0.333 0 0.833 0.833" fill="freeze" /><g transform="scale(1,1) translate(-191.014,-182.691)"><g id="Right ear"><g transform="translate(240.58,60.878)"><animateTransform repeatCount="indefinite" type="translate" attributeName="transform" dur="0.933s" begin="1.733s" calcMode="spline" values="240.58 60.878; 233.63 62.182; 240.58 60.878" keyTimes="0; 0.429; 1" keySplines="0.167 0.167 0.667 1; 0.333 0 0.667 1" fill="freeze" /><g transform="rotate(0)"><animateTransform repeatCount="indefinite" type="rotate" attributeName="transform" dur="0.933s" begin="1.733s" calcMode="spline" values="0; -6; 0" keyTimes="0; 0.429; 1" keySplines="0.167 0.167 0.667 1; 0.333 0 0.667 1" fill="freeze" /><g transform="scale(1,1) translate(-44.72,-48.627)"><g id="Group 3" transform="matrix(1,0,0,1,44.72,48.627)"><path fill="#ffc04a" fill-opacity="1" d="M-44.47,31.094C-44.47,31.094,-32.552,-2.221,-14.603,-27.852C-4.905,-41.701,0.864,-48.377,11.71,-34.927C22.555,-21.477,40.634,6.254,44.47,48.377" /></g><g id="Group 2" transform="matrix(1,0,0,1,51.812,55.727)"><path fill="#fff5db" fill-opacity="1" d="M23.641,32.856C5.558,24.151,-11.016,19.029,-18.979,18.839C-19.85,18.817,-20.752,18.816,-21.667,18.838C-12.377,13.057,-7.994,8.698,-6.243,5.524C-7.867,5.46,-16.715,7.054,-23.641,9.378C-16.435,-24.167,-6,-32.856,-6,-32.856C6.527,-23.76,20.497,12.984,23.641,32.856Z" /></g><g id="Group 1" transform="matrix(1,0,0,1,42.617,51.995)"><path stroke-linejoin="miter" stroke-linecap="round" stroke-width="3" stroke-opacity="1" stroke="#a54c0f" d="M14.447,29.125C4.146,24.877,-4.673,22.693,-9.784,22.571C-10.656,22.549,-11.557,22.548,-12.472,22.57C-3.182,16.788,1.201,12.429,2.952,9.256C1.328,9.191,-7.521,10.787,-14.447,13.111C-8.758,-13.368,-1.059,-24.36,1.933,-27.816C2.731,-28.739,3.195,-29.125,3.195,-29.125" /></g></g></g></g></g></g></g></g></g><g id="Head outlines"><g transform="translate(223.523,199.066)"><animateTransform repeatCount="indefinite" type="translate" attributeName="transform" dur="3s" begin="0s" calcMode="spline" values="223.523 199.066; 223.523 199.066; 218.523 214.066; 218.523 214.066; 223.523 199.066" keyTimes="0; 0.578; 0.711; 0.889; 1" keySplines="0 0 1 1; 0.167 0.167 0.667 1; 0 0 1 1; 0.333 0 0.833 0.833" fill="freeze" /><g transform="rotate(10)"><animateTransform repeatCount="indefinite" type="rotate" attributeName="transform" dur="3s" begin="0s" calcMode="spline" values="10; 10; 0; 0; 10" keyTimes="0; 0.578; 0.711; 0.889; 1" keySplines="0 0 1 1; 0.167 0.167 0.667 1; 0.333 0 0.667 1; 0.333 0 0.833 0.833" fill="freeze" /><g transform="scale(1,1) translate(-191.014,-182.691)"><g transform="matrix(1,0,0,1,172.091,205.089)" id="Mouth"><g id="Group 1" transform="matrix(1,0,0,1,51.197,42.798)"><path stroke-linejoin="round" stroke-linecap="round" stroke-width="5" stroke-opacity="1" stroke="#451f05" d="M-38.697,27.153C-36.351,27.853,-27.167,30.297,-17.43,25.628C-4.131,19.251,-1.361,5.151,-1.094,3.658C1.161,4.44,11.551,7.773,21.699,2.484C32.553,-3.173,38.697,-16.38,36.508,-30.298" /></g></g></g></g></g></g><g id="Head outlines"><g transform="translate(223.523,199.066)"><animateTransform repeatCount="indefinite" type="translate" attributeName="transform" dur="3s" begin="0s" calcMode="spline" values="223.523 199.066; 223.523 199.066; 218.523 214.066; 218.523 214.066; 223.523 199.066" keyTimes="0; 0.578; 0.711; 0.889; 1" keySplines="0 0 1 1; 0.167 0.167 0.667 1; 0 0 1 1; 0.333 0 0.833 0.833" fill="freeze" /><g transform="rotate(10)"><animateTransform repeatCount="indefinite" type="rotate" attributeName="transform" dur="3s" begin="0s" calcMode="spline" values="10; 10; 0; 0; 10" keyTimes="0; 0.578; 0.711; 0.889; 1" keySplines="0 0 1 1; 0.167 0.167 0.667 1; 0.333 0 0.667 1; 0.333 0 0.833 0.833" fill="freeze" /><g transform="scale(1,1) translate(-191.014,-182.691)"><g transform="matrix(1,0,0,1,181.095,207.607)" id="Nose and lips"><g id="Group 2" transform="matrix(1,0,0,1,28.066,22.516)"><path fill="#451f05" fill-opacity="1" d="M5.778,9.247C19.34,0.773,27.816,-6.238,22.808,-14.252C17.8,-22.266,2.698,-16.257,-6.549,-10.479C-15.795,-4.701,-27.816,6.239,-22.808,14.252C-17.801,22.266,-7.784,17.721,5.778,9.247Z" /></g><g id="Group 1" transform="matrix(1,0,0,1,34.706,33.5)"><path stroke-linejoin="miter" stroke-linecap="butt" stroke-width="5" stroke-opacity="1" stroke="#451f05" d="M-7.539,-12.595L7.539,12.595" /></g></g></g></g></g></g><g id="Head outlines"><g transform="translate(223.523,199.066)"><animateTransform repeatCount="indefinite" type="translate" attributeName="transform" dur="3s" begin="0s" calcMode="spline" values="223.523 199.066; 223.523 199.066; 218.523 214.066; 218.523 214.066; 223.523 199.066" keyTimes="0; 0.578; 0.711; 0.889; 1" keySplines="0 0 1 1; 0.167 0.167 0.667 1; 0 0 1 1; 0.333 0 0.833 0.833" fill="freeze" /><g transform="rotate(10)"><animateTransform repeatCount="indefinite" type="rotate" attributeName="transform" dur="3s" begin="0s" calcMode="spline" values="10; 10; 0; 0; 10" keyTimes="0; 0.578; 0.711; 0.889; 1" keySplines="0 0 1 1; 0.167 0.167 0.667 1; 0.333 0 0.667 1; 0.333 0 0.833 0.833" fill="freeze" /><g transform="scale(1,1) translate(-191.014,-182.691)"><g transform="matrix(1,0,0,1,118.32,215.765)" id="Left eye"><g><g transform="translate(23.417,21.176)"><g id="Group 2" transform="scale(1,1)"><animateTransform repeatCount="indefinite" type="scale" attributeName="transform" dur="1.267s" begin="1.733s" calcMode="spline" values="1 1; 0.92 0.92; 0.92 0.92; 0.86 0.86; 0.92 0.92; 0.92 0.92; 1 1" keyTimes="0; 0.237; 0.421; 0.5; 0.579; 0.737; 1" keySplines="0.167 0.167 0.667 1; 0.333 0 0.667 1; 0.333 0 0.667 1; 0.333 0 0.667 1; 0.333 0 0.667 1; 0.333 0 0.833 0.833" fill="freeze" /><path fill="#451f05" fill-opacity="1" d="M8.765,-19.98C3.001,-16.521,-10.934,-8.228,-19.705,-3.598C-21.198,-2.809,-21.744,-0.938,-20.901,0.525C-16.603,7.982,-7.099,20.874,6.869,12.147C21.744,2.853,16.137,-12.495,12.973,-18.764C12.19,-20.317,10.257,-20.875,8.765,-19.98Z" /></g></g></g><g><g transform="translate(27.689,11.456)"><animateTransform repeatCount="indefinite" type="translate" attributeName="transform" dur="3s" begin="0s" calcMode="spline" values="27.689 11.456; 27.689 11.456; 18.429 2.851; 18.259 4.292; 24.634 10.542; 18.429 2.851; 18.429 2.851; 27.689 11.456" keyTimes="0; 0.578; 0.678; 0.756; 0.789; 0.822; 0.889; 1" keySplines="0 0 1 1; 0.167 0.167 0.667 1; 0.333 0 0.667 1; 0.333 0 0.667 1; 0.333 0 0.667 1; 0 0 1 1; 0.333 0 0.833 0.833" fill="freeze" /><g id="Group 1" transform="scale(1,1)"><animateTransform repeatCount="indefinite" type="scale" attributeName="transform" dur="0.933s" begin="1.733s" calcMode="spline" values="1 1; 1 1; 0 0; 1 1; 1 1" keyTimes="0; 0.571; 0.679; 0.786; 1" keySplines="0 0 1 1; 0 0 1 1; 0 0 1 1; 0 0 1 1" fill="freeze" /><path fill="#fff5db" fill-opacity="1" d="M3.88,0C3.88,2.143,2.142,3.88,-0.001,3.88C-2.143,3.88,-3.88,2.143,-3.88,0C-3.88,-2.143,-2.143,-3.88,-0.001,-3.88C2.142,-3.88,3.88,-2.143,3.88,0Z" /></g></g></g></g></g></g></g></g><g id="Head outlines"><g transform="translate(223.523,199.066)"><animateTransform repeatCount="indefinite" type="translate" attributeName="transform" dur="3s" begin="0s" calcMode="spline" values="223.523 199.066; 223.523 199.066; 218.523 214.066; 218.523 214.066; 223.523 199.066" keyTimes="0; 0.578; 0.711; 0.889; 1" keySplines="0 0 1 1; 0.167 0.167 0.667 1; 0 0 1 1; 0.333 0 0.833 0.833" fill="freeze" /><g transform="rotate(10)"><animateTransform repeatCount="indefinite" type="rotate" attributeName="transform" dur="3s" begin="0s" calcMode="spline" values="10; 10; 0; 0; 10" keyTimes="0; 0.578; 0.711; 0.889; 1" keySplines="0 0 1 1; 0.167 0.167 0.667 1; 0.333 0 0.667 1; 0.333 0 0.833 0.833" fill="freeze" /><g transform="scale(1,1) translate(-191.014,-182.691)"><g transform="matrix(1,0,0,1,219.998,148.698)" id="Right eye"><g><g transform="translate(23.417,21.176)"><g id="Group 2" transform="scale(1,1)"><animateTransform repeatCount="indefinite" type="scale" attributeName="transform" dur="1.267s" begin="1.733s" calcMode="spline" values="1 1; 0.92 0.92; 0.92 0.92; 0.86 0.86; 0.92 0.92; 0.92 0.92; 1 1" keyTimes="0; 0.237; 0.421; 0.5; 0.579; 0.737; 1" keySplines="0.167 0.167 0.667 1; 0.333 0 0.667 1; 0.333 0 0.667 1; 0.333 0 0.667 1; 0.333 0 0.667 1; 0.333 0 0.833 0.833" fill="freeze" /><path fill="#451f05" fill-opacity="1" d="M-21.328,-1.157C-15.586,-4.89,-1.77,-13.947,6.387,-19.91C7.775,-20.926,9.735,-20.589,10.698,-19.163C15.607,-11.897,23.168,2.563,8.938,11.456C-6.217,20.925,-17.768,8.937,-22.096,3.24C-23.168,1.828,-22.813,-0.191,-21.328,-1.157Z" /></g></g></g><g><g transform="translate(28.634,12.417)"><animateTransform repeatCount="indefinite" type="translate" attributeName="transform" dur="1.267s" begin="1.733s" calcMode="spline" values="28.634 12.417; 18.259 4.292; 18.259 4.292; 24.634 10.542; 18.259 4.292; 18.259 4.292; 28.634 12.417" keyTimes="0; 0.237; 0.421; 0.5; 0.579; 0.737; 1" keySplines="0.167 0.167 0.667 1; 0.333 0 0.667 1; 0.333 0 0.667 1; 0.333 0 0.667 1; 0.333 0 0.667 1; 0.333 0 0.833 0.833" fill="freeze" /><g id="Group 1" transform="scale(1,1)"><animateTransform repeatCount="indefinite" type="scale" attributeName="transform" dur="0.933s" begin="1.733s" calcMode="spline" values="1 1; 1 1; 1 1; 0 0; 1 1; 1 1" keyTimes="0; 0.321; 0.571; 0.679; 0.786; 1" keySplines="0 0 1 1; 0 0 1 1; 0 0 1 1; 0 0 1 1; 0 0 1 1" fill="freeze" /><path fill="#fff5db" fill-opacity="1" d="M3.88,0C3.88,2.143,2.143,3.88,0,3.88C-2.142,3.88,-3.88,2.143,-3.88,0C-3.88,-2.143,-2.142,-3.88,0,-3.88C2.143,-3.88,3.88,-2.143,3.88,0Z" /></g></g></g></g></g></g></g></g><g id="Head outlines"><g transform="translate(223.523,199.066)"><animateTransform repeatCount="indefinite" type="translate" attributeName="transform" dur="3s" begin="0s" calcMode="spline" values="223.523 199.066; 223.523 199.066; 218.523 214.066; 218.523 214.066; 223.523 199.066" keyTimes="0; 0.578; 0.711; 0.889; 1" keySplines="0 0 1 1; 0.167 0.167 0.667 1; 0 0 1 1; 0.333 0 0.833 0.833" fill="freeze" /><g transform="rotate(10)"><animateTransform repeatCount="indefinite" type="rotate" attributeName="transform" dur="3s" begin="0s" calcMode="spline" values="10; 10; 0; 0; 10" keyTimes="0; 0.578; 0.711; 0.889; 1" keySplines="0 0 1 1; 0.167 0.167 0.667 1; 0.333 0 0.667 1; 0.333 0 0.833 0.833" fill="freeze" /><g transform="scale(1,1) translate(-191.014,-182.691)"><g id="Left eyebrow"><g transform="translate(127.702,184.081)"><animateTransform repeatCount="indefinite" type="translate" attributeName="transform" dur="1.133s" begin="0s" calcMode="spline" values="127.702 184.081; 121.721 177.519; 136.918 200.354; 121.721 177.519; 136.918 200.354; 127.702 184.081" keyTimes="0; 0.176; 0.353; 0.529; 0.706; 1" keySplines="0.167 0.167 0.667 1; 0.333 0 0.667 1; 0.333 0 0.667 1; 0.333 0 0.833 0.833; 0.167 0.167 0.667 1" fill="freeze" /><g transform="scale(1,1) translate(-14.518,-9.727)"><g id="Group 1" transform="matrix(1,0,0,1,14.518,9.727)"><path fill="#fff5db" fill-opacity="1" d="M0.65,-9.172C8.058,-8.899,14.268,-6.169,13.441,-1.363C11.574,9.477,-14.026,5.141,-14.182,-3.146C-14.267,-7.743,-7.632,-9.477,0.65,-9.172Z" /></g></g></g></g></g></g></g></g><g id="Head outlines"><g transform="translate(223.523,199.066)"><animateTransform repeatCount="indefinite" type="translate" attributeName="transform" dur="3s" begin="0s" calcMode="spline" values="223.523 199.066; 223.523 199.066; 218.523 214.066; 218.523 214.066; 223.523 199.066" keyTimes="0; 0.578; 0.711; 0.889; 1" keySplines="0 0 1 1; 0.167 0.167 0.667 1; 0 0 1 1; 0.333 0 0.833 0.833" fill="freeze" /><g transform="rotate(10)"><animateTransform repeatCount="indefinite" type="rotate" attributeName="transform" dur="3s" begin="0s" calcMode="spline" values="10; 10; 0; 0; 10" keyTimes="0; 0.578; 0.711; 0.889; 1" keySplines="0 0 1 1; 0.167 0.167 0.667 1; 0.333 0 0.667 1; 0.333 0 0.833 0.833" fill="freeze" /><g transform="scale(1,1) translate(-191.014,-182.691)"><g id="Right eyebrow"><g transform="translate(202.972,135.894)"><animateTransform repeatCount="indefinite" type="translate" attributeName="transform" dur="1.133s" begin="0s" calcMode="spline" values="202.972 135.894; 196.992 129.333; 212.189 152.167; 196.992 129.333; 212.189 152.167; 202.972 135.894" keyTimes="0; 0.176; 0.353; 0.529; 0.706; 1" keySplines="0.167 0.167 0.667 1; 0.333 0 0.667 1; 0.333 0 0.667 1; 0.333 0 0.833 0.833; 0.167 0.167 0.667 1" fill="freeze" /><g transform="scale(1,1) translate(-11.534,-15.637)"><g id="Group 1" transform="matrix(1,0,0,1,11.534,15.638)"><path fill="#fff5db" fill-opacity="1" d="M-8.012,-2.607C-11.014,4.171,-11.284,10.949,-6.603,12.312C3.959,15.387,11.283,-9.524,3.904,-13.296C-0.19,-15.388,-4.656,-10.185,-8.012,-2.607Z" /></g></g></g></g></g></g></g></g><g id="Head outlines"><g transform="translate(223.523,199.066)"><animateTransform repeatCount="indefinite" type="translate" attributeName="transform" dur="3s" begin="0s" calcMode="spline" values="223.523 199.066; 223.523 199.066; 218.523 214.066; 218.523 214.066; 223.523 199.066" keyTimes="0; 0.578; 0.711; 0.889; 1" keySplines="0 0 1 1; 0.167 0.167 0.667 1; 0 0 1 1; 0.333 0 0.833 0.833" fill="freeze" /><g transform="rotate(10)"><animateTransform repeatCount="indefinite" type="rotate" attributeName="transform" dur="3s" begin="0s" calcMode="spline" values="10; 10; 0; 0; 10" keyTimes="0; 0.578; 0.711; 0.889; 1" keySplines="0 0 1 1; 0.167 0.167 0.667 1; 0.333 0 0.667 1; 0.333 0 0.833 0.833" fill="freeze" /><g transform="scale(1,1) translate(-191.014,-182.691)"><g id="Group 1" transform="matrix(1,0,0,1,191.014,182.692)"><path stroke-linejoin="miter" stroke-linecap="butt" stroke-width="5" stroke-opacity="1" stroke="#a54c0f" d="M132.751,-59.281C125.854,-63.497,110.875,-70.263,93.665,-77.048C89.158,-117.147,71.808,-143.679,61.275,-156.74C50.43,-170.191,44.66,-163.514,34.962,-149.666C22.251,-131.515,12.572,-109.524,8.001,-98.226C-11.569,-94.037,-37.281,-80.746,-55.021,-69.661C-67.885,-61.623,-83.63,-50.324,-96.022,-38.714C-107.033,-41.887,-131.674,-48.276,-154.996,-49.393C-171.883,-50.202,-178.514,-50.102,-176.697,-32.919C-174.607,-13.159,-164.585,21.289,-126.086,51.896C-128.104,73.798,-128.891,94.342,-128.005,103.657C-123.541,150.582,-104.433,166.071,-65.369,168.232C-29.953,170.191,31.255,150.712,68.242,127.6C105.229,104.488,149.568,58.014,163.332,25.325C178.515,-10.734,172.97,-34.698,132.751,-59.281Z" /></g></g></g></g></g><g transform="matrix(1,0,0,1,409.026,48.502)" id="Wall "><g id="Group 1"><path stroke-linejoin="miter" stroke-linecap="round" stroke-width="5" stroke-opacity="1" stroke="#451f05" d="M2.5,2.5L2.5,424.999" /></g></g></svg>
