<?xml version="1.0" encoding="utf-8"?><svg fill="none" viewBox="0 0 350 350" xmlns="http://www.w3.org/2000/svg"><defs /><g transform="matrix(1,0,0,1,175,175)" id="b"><g id="G"><path fill="#c16a48" fill-opacity="1" d="M-69.716,9.435L-9.548,-0.694L77.015,9.435L50.799,9.432L-69.716,9.435Z" /></g><g id="G"><path fill="#d38e6e" fill-opacity="1" d="M50.799,9.432L35.7,100L-51.171,100L-60.25,55.694L-62.886,42.797L37.63,43.395L50.799,9.432Z" /></g><g id="G"><path fill="#c16a48" fill-opacity="1" d="M70.723,40.16L69.514,46.045L62.501,80.266L35.7,100L50.799,9.432L54.877,45.406L70.723,40.16Z" /></g><g id="G"><path fill="#ffd4c4" fill-opacity="1" d="M83.474,35.929L70.719,40.161L54.878,45.406L50.8,9.435L77.015,9.435L83.474,35.929Z" /></g><g id="G"><path fill="#a34224" fill-opacity="1" d="M70.723,40.16L69.514,46.045L65.831,47.486L49.155,53.982L50.799,9.432L54.877,45.406L70.723,40.16Z" /></g><g id="G"><path fill="#ffd4c4" fill-opacity="1" d="M50.8,9.435L37.63,43.391L-62.89,42.793L-83.474,42.668L-69.716,9.435L50.8,9.435Z" /></g><g id="G"><path fill="#c16a48" fill-opacity="1" d="M50.799,9.432L40.036,56.523L-60.25,55.694L-62.886,42.797L37.63,43.395L50.799,9.432Z" /></g></g><g id="f"><g transform="translate(178.528,272.327)"><animateTransform repeatCount="indefinite" type="translate" attributeName="transform" dur="4.28s" begin="0.52s" calcMode="spline" values="178.528 272.327; 188.682 188.926; 188.682 188.926; 178.528 272.327" keyTimes="0; 0.187; 0.813; 1" keySplines="0.333 0 0.667 1; 0 0 1 1; 0.333 0 0.667 1" fill="freeze" /><g transform="rotate(-12)"><animateTransform repeatCount="indefinite" type="rotate" attributeName="transform" dur="0.24s" begin="2.235s" calcMode="spline" values="-12; 0" keyTimes="0; 1" keySplines="0 0 1 1" fill="freeze" /><g transform="scale(0.75,0.75)"><animateTransform repeatCount="indefinite" type="scale" attributeName="transform" dur="4.08s" begin="0.72s" calcMode="spline" values="0.75 0.75; 1 1; 1 1; 0.75 0.75" keyTimes="0; 0.147; 0.853; 1" keySplines="0.167 0.167 0.833 0.833; 0 0 1 1; 0.167 0.167 0.833 0.833" fill="freeze" /><g transform="translate(3.281,-17.318)"><g transform="matrix(1,0,0,1,-0.936,4.401)" id="e"><g><g transform="translate(25.949,-45.932)"><g transform="rotate(0)"><animateTransform repeatCount="indefinite" type="rotate" attributeName="transform" dur="0.8s" begin="0.12s" calcMode="spline" values="0; 5; -5" keyTimes="0; 0.5; 1" keySplines="0.333 0 0.833 1; 0.167 0 0.833 1" fill="freeze" /><g id="G" transform="translate(-25.949,45.932)"><g id="G"><path fill="#f9a541" fill-opacity="1" d="M56.124,-73.078C48.634,-68.754,42.204,-62.586,37.514,-55.312C34.948,-58.192,32.122,-60.788,29.055,-63.009C27.521,-64.125,25.932,-65.153,24.302,-66.094C31.706,-70.864,40.27,-73.83,49.039,-74.631C51.482,-74.854,54.208,-74.816,56.032,-73.172C56.066,-73.144,56.101,-73.107,56.124,-73.078Z" /></g><g id="G"><path fill="#ffffff" fill-opacity="1" d="M57.153,-63.878C54.981,-56.278,51.109,-49.179,45.926,-43.228C43.583,-47.594,40.763,-51.686,37.514,-55.312C42.204,-62.586,48.634,-68.754,56.124,-73.078C58.459,-70.856,58.038,-67.008,57.153,-63.878Z" /></g></g></g></g></g><g><g transform="translate(-26.358,-58.206)"><g transform="rotate(0)"><animateTransform repeatCount="indefinite" type="rotate" attributeName="transform" dur="0.8s" begin="0.12s" calcMode="spline" values="0; -5; 5" keyTimes="0; 0.5; 1" keySplines="0.333 0 0.833 1; 0.167 0 0.833 1" fill="freeze" /><g id="G" transform="translate(26.358,58.206)"><g id="G"><path fill="#ffffff" fill-opacity="1" d="M-33.637,-68.595C-38.574,-66.185,-43.187,-63.106,-47.324,-59.497C-49.066,-71.194,-48.074,-83.297,-44.418,-94.531C-43.738,-96.61,-42.778,-98.871,-40.756,-99.691C-39.785,-100.087,-38.772,-100.074,-37.777,-99.812C-36.397,-97.866,-35.573,-95.381,-35.018,-93.023C-33.13,-85.043,-32.674,-76.735,-33.637,-68.595Z" /></g><g id="G"><path fill="#f9a541" fill-opacity="1" d="M-15.848,-73.987C-18.891,-73.58,-21.91,-72.93,-24.858,-72.054C-27.895,-71.152,-30.845,-69.992,-33.681,-68.614C-32.694,-76.751,-33.135,-85.058,-34.99,-93.046C-35.538,-95.406,-36.355,-97.893,-37.729,-99.843C-36.279,-99.458,-34.85,-98.533,-33.644,-97.588C-25.792,-91.439,-19.625,-83.2,-15.848,-73.987Z" /></g></g></g></g></g></g></g></g></g></g></g><g id="f"><g transform="translate(178.528,272.327)"><animateTransform repeatCount="indefinite" type="translate" attributeName="transform" dur="4.28s" begin="0.52s" calcMode="spline" values="178.528 272.327; 188.682 188.926; 188.682 188.926; 178.528 272.327" keyTimes="0; 0.187; 0.813; 1" keySplines="0.333 0 0.667 1; 0 0 1 1; 0.333 0 0.667 1" fill="freeze" /><g transform="rotate(-12)"><animateTransform repeatCount="indefinite" type="rotate" attributeName="transform" dur="0.24s" begin="2.235s" calcMode="spline" values="-12; 0" keyTimes="0; 1" keySplines="0 0 1 1" fill="freeze" /><g transform="scale(0.75,0.75)"><animateTransform repeatCount="indefinite" type="scale" attributeName="transform" dur="4.08s" begin="0.72s" calcMode="spline" values="0.75 0.75; 1 1; 1 1; 0.75 0.75" keyTimes="0; 0.147; 0.853; 1" keySplines="0.167 0.167 0.833 0.833; 0 0 1 1; 0.167 0.167 0.833 0.833" fill="freeze" /><g transform="translate(3.281,-17.318)"><g id="G"><path fill="#f9a541" fill-opacity="1" d="M53.272,-3.945C54.317,-4.121,55.362,-4.287,56.408,-4.453C55.94,-4.386,53.977,-1.015,53.462,-0.489C52.267,0.764,50.912,1.869,49.435,2.779C47.969,3.698,46.383,4.434,44.722,4.95C43.682,5.28,40.639,5.368,40.094,6.113C41.147,6.637,42.43,6.89,43.557,7.232C37.953,10.709,31.148,12.18,24.601,11.368C10.235,17.687,-5.434,19.619,-20.433,13.986C-36.867,7.816,-51.352,-4.778,-59.395,-20.406C-60.234,-20.756,-61.023,-21.213,-61.72,-21.793C-63.677,-23.424,-64.782,-25.82,-65.817,-28.14C-64.54,-26.813,-63.056,-25.682,-61.442,-24.801C-61.872,-25.81,-62.274,-26.833,-62.644,-27.858C-63.143,-29.242,-63.449,-30.665,-63.581,-32.096L-63.582,-32.106C-64.015,-32.826,-64.369,-33.585,-64.634,-34.384C-65.44,-36.779,-65.426,-39.441,-64.601,-41.823C-64.314,-40.387,-63.804,-38.994,-63.1,-37.723C-62.802,-38.877,-62.368,-40.003,-61.815,-41.079C-58.209,-48.049,-53.244,-54.318,-47.324,-59.497C-43.187,-63.106,-38.574,-66.185,-33.637,-68.595C-30.805,-69.981,-27.858,-71.15,-24.824,-72.061C-21.881,-72.952,-18.862,-73.604,-15.82,-74.02C-12.922,-74.432,-10.001,-74.62,-7.081,-74.601C-0.169,-74.578,6.733,-73.409,13.268,-71.162C17.102,-69.842,20.807,-68.159,24.302,-66.094C25.932,-65.153,27.521,-64.125,29.055,-63.009C32.122,-60.788,34.948,-58.192,37.514,-55.312C40.763,-51.686,43.583,-47.594,45.926,-43.228C50.087,-35.516,52.789,-26.926,53.751,-18.4C53.963,-16.585,53.857,-14.749,53.464,-12.998C53.292,-12.238,53.067,-11.495,52.788,-10.776C55.01,-10.935,57.206,-11.453,59.255,-12.317C58.408,-8.912,56.227,-5.858,53.272,-3.945Z" /></g><g id="G"><path fill="#d07d23" fill-opacity="1" d="M13.268,-71.162C9.2,-66.962,5.92,-62.005,3.673,-56.604C3.858,-61.48,3.007,-66.396,1.214,-70.941C0.27,-69.444,-0.664,-67.95,-1.598,-66.454L-7.081,-74.601C-0.169,-74.578,6.733,-73.409,13.268,-71.162Z" /></g></g></g></g></g></g><g id="f"><g transform="translate(178.528,272.327)"><animateTransform repeatCount="indefinite" type="translate" attributeName="transform" dur="4.28s" begin="0.52s" calcMode="spline" values="178.528 272.327; 188.682 188.926; 188.682 188.926; 178.528 272.327" keyTimes="0; 0.187; 0.813; 1" keySplines="0.333 0 0.667 1; 0 0 1 1; 0.333 0 0.667 1" fill="freeze" /><g transform="rotate(-12)"><animateTransform repeatCount="indefinite" type="rotate" attributeName="transform" dur="0.24s" begin="2.235s" calcMode="spline" values="-12; 0" keyTimes="0; 1" keySplines="0 0 1 1" fill="freeze" /><g transform="scale(0.75,0.75)"><animateTransform repeatCount="indefinite" type="scale" attributeName="transform" dur="4.08s" begin="0.72s" calcMode="spline" values="0.75 0.75; 1 1; 1 1; 0.75 0.75" keyTimes="0; 0.147; 0.853; 1" keySplines="0.167 0.167 0.833 0.833; 0 0 1 1; 0.167 0.167 0.833 0.833" fill="freeze" /><g transform="translate(3.281,-17.318)"><g id="m"><g transform="translate(-7.92,-10.051)"><animateTransform repeatCount="indefinite" type="translate" attributeName="transform" dur="1.745s" begin="2.409s" calcMode="spline" values="-7.92 -10.051; -4.92 -16.551; -7.92 -10.051; -4.92 -16.551; -7.92 -10.051; -4.92 -16.551; -7.92 -10.051; -4.92 -16.551; -7.92 -10.051; -4.92 -16.551; -7.92 -10.051" keyTimes="0; 0.105; 0.2; 0.305; 0.4; 0.505; 0.6; 0.705; 0.8; 0.905; 1" keySplines="0.333 0 0.667 1; 0.333 0 0.667 1; 0.333 0 0.667 1; 0.333 0 0.667 1; 0.333 0 0.667 1; 0.333 0 0.667 1; 0.333 0 0.667 1; 0.333 0 0.667 1; 0.333 0 0.667 1; 0.333 0 0.667 1" fill="freeze" /><g transform="scale(1,1) translate(7.92,10.051)"><g transform="matrix(1,0,0,1,0,0)" id="e"><g id="G"><path fill="#ffffff" fill-opacity="1" d="M7.946,-37.553C6.845,-29.399,5.347,-22.722,1.971,-15.51C1.324,-14.12,1.511,-12.462,2.499,-11.293C2.598,-11.175,2.698,-11.057,2.8,-10.947C4.746,-8.72,7.238,-6.969,9.992,-5.892C13.265,-4.62,16.644,-4.135,20.025,-4.778C20.873,-4.935,21.663,-5.366,22.237,-6.012C27.229,-11.551,30.145,-16.961,32.228,-24.29C33.255,-27.915,34.458,-32.442,32.672,-35.91C30.735,-39.668,27.213,-42.693,23.25,-44.134C22.209,-44.515,21.118,-44.789,20.021,-44.949C17.645,-45.31,15.2,-45.178,12.873,-44.57C8.241,-43.364,8.521,-41.814,7.946,-37.553Z" /></g></g></g></g></g></g></g></g></g></g><g id="f"><g transform="translate(178.528,272.327)"><animateTransform repeatCount="indefinite" type="translate" attributeName="transform" dur="4.28s" begin="0.52s" calcMode="spline" values="178.528 272.327; 188.682 188.926; 188.682 188.926; 178.528 272.327" keyTimes="0; 0.187; 0.813; 1" keySplines="0.333 0 0.667 1; 0 0 1 1; 0.333 0 0.667 1" fill="freeze" /><g transform="rotate(-12)"><animateTransform repeatCount="indefinite" type="rotate" attributeName="transform" dur="0.24s" begin="2.235s" calcMode="spline" values="-12; 0" keyTimes="0; 1" keySplines="0 0 1 1" fill="freeze" /><g transform="scale(0.75,0.75)"><animateTransform repeatCount="indefinite" type="scale" attributeName="transform" dur="4.08s" begin="0.72s" calcMode="spline" values="0.75 0.75; 1 1; 1 1; 0.75 0.75" keyTimes="0; 0.147; 0.853; 1" keySplines="0.167 0.167 0.833 0.833; 0 0 1 1; 0.167 0.167 0.833 0.833" fill="freeze" /><g transform="translate(3.281,-17.318)"><g id="m"><g transform="translate(-7.92,-10.051)"><animateTransform repeatCount="indefinite" type="translate" attributeName="transform" dur="1.745s" begin="2.409s" calcMode="spline" values="-7.92 -10.051; -4.92 -16.551; -7.92 -10.051; -4.92 -16.551; -7.92 -10.051; -4.92 -16.551; -7.92 -10.051; -4.92 -16.551; -7.92 -10.051; -4.92 -16.551; -7.92 -10.051" keyTimes="0; 0.105; 0.2; 0.305; 0.4; 0.505; 0.6; 0.705; 0.8; 0.905; 1" keySplines="0.333 0 0.667 1; 0.333 0 0.667 1; 0.333 0 0.667 1; 0.333 0 0.667 1; 0.333 0 0.667 1; 0.333 0 0.667 1; 0.333 0 0.667 1; 0.333 0 0.667 1; 0.333 0 0.667 1; 0.333 0 0.667 1" fill="freeze" /><g transform="scale(1,1) translate(7.92,10.051)"><g transform="matrix(1,0,0,1,0,0)" id="e"><g id="e"><g transform="translate(17.59,-24.821)"><animateTransform repeatCount="indefinite" type="translate" attributeName="transform" dur="0.242s" begin="1.993s" calcMode="spline" values="17.59 -24.821; 17.59 -24.821" keyTimes="0; 1" keySplines="0 0 1 1" fill="freeze" /><g transform="scale(1,1)"><animateTransform repeatCount="indefinite" type="scale" attributeName="transform" dur="0.349s" begin="1.644s" calcMode="spline" values="1 1; 0.2 0.2; 1 1" keyTimes="0; 0.5; 1" keySplines="0.333 0 0.667 1; 0.333 0 0.667 1" fill="freeze" /><g transform="translate(-17.59,24.821)"><g id="G"><path fill="#000000" fill-opacity="1" d="M10.815,-26.623C8.876,-19.333,10.338,-12.616,14.08,-11.621C17.822,-10.626,22.427,-15.729,24.366,-23.019C26.305,-30.309,24.843,-37.027,21.101,-38.022C17.359,-39.017,12.754,-33.913,10.815,-26.623Z" /></g><g id="G"><path fill="#ffffff" fill-opacity="1" d="M14.425,-25.037C13.519,-21.631,14.202,-18.492,15.95,-18.027C17.698,-17.562,19.85,-19.947,20.756,-23.353C21.662,-26.759,20.978,-29.897,19.23,-30.362C17.482,-30.827,15.331,-28.443,14.425,-25.037Z" /></g></g></g></g></g></g></g></g></g></g></g></g></g></g><g id="f"><g transform="translate(178.528,272.327)"><animateTransform repeatCount="indefinite" type="translate" attributeName="transform" dur="4.28s" begin="0.52s" calcMode="spline" values="178.528 272.327; 188.682 188.926; 188.682 188.926; 178.528 272.327" keyTimes="0; 0.187; 0.813; 1" keySplines="0.333 0 0.667 1; 0 0 1 1; 0.333 0 0.667 1" fill="freeze" /><g transform="rotate(-12)"><animateTransform repeatCount="indefinite" type="rotate" attributeName="transform" dur="0.24s" begin="2.235s" calcMode="spline" values="-12; 0" keyTimes="0; 1" keySplines="0 0 1 1" fill="freeze" /><g transform="scale(0.75,0.75)"><animateTransform repeatCount="indefinite" type="scale" attributeName="transform" dur="4.08s" begin="0.72s" calcMode="spline" values="0.75 0.75; 1 1; 1 1; 0.75 0.75" keyTimes="0; 0.147; 0.853; 1" keySplines="0.167 0.167 0.833 0.833; 0 0 1 1; 0.167 0.167 0.833 0.833" fill="freeze" /><g transform="translate(3.281,-17.318)"><g id="m"><g transform="translate(-7.92,-10.051)"><animateTransform repeatCount="indefinite" type="translate" attributeName="transform" dur="1.745s" begin="2.409s" calcMode="spline" values="-7.92 -10.051; -4.92 -16.551; -7.92 -10.051; -4.92 -16.551; -7.92 -10.051; -4.92 -16.551; -7.92 -10.051; -4.92 -16.551; -7.92 -10.051; -4.92 -16.551; -7.92 -10.051" keyTimes="0; 0.105; 0.2; 0.305; 0.4; 0.505; 0.6; 0.705; 0.8; 0.905; 1" keySplines="0.333 0 0.667 1; 0.333 0 0.667 1; 0.333 0 0.667 1; 0.333 0 0.667 1; 0.333 0 0.667 1; 0.333 0 0.667 1; 0.333 0 0.667 1; 0.333 0 0.667 1; 0.333 0 0.667 1; 0.333 0 0.667 1" fill="freeze" /><g transform="scale(1,1) translate(7.92,10.051)"><g transform="matrix(1,0,0,1,0,0)" id="e"><g transform="matrix(1,0,0,1,0,0)" id="m"><g id="G"><path fill="#ffffff" fill-opacity="1" d="M7.946,-37.553C6.845,-29.399,5.347,-22.722,1.971,-15.51C1.324,-14.12,1.511,-12.462,2.499,-11.293C2.598,-11.175,2.698,-11.057,2.8,-10.947C4.746,-8.72,7.238,-6.969,9.992,-5.892C13.265,-4.62,16.644,-4.135,20.025,-4.778C20.873,-4.935,21.663,-5.366,22.237,-6.012C27.229,-11.551,30.145,-16.961,32.228,-24.29C33.255,-27.915,34.458,-32.442,32.672,-35.91C30.735,-39.668,27.213,-42.693,23.25,-44.134C22.209,-44.515,21.118,-44.789,20.021,-44.949C17.645,-45.31,15.2,-45.178,12.873,-44.57C8.241,-43.364,8.521,-41.814,7.946,-37.553Z" /></g></g></g></g></g></g></g></g></g></g></g><g id="f"><g transform="translate(178.528,272.327)"><animateTransform repeatCount="indefinite" type="translate" attributeName="transform" dur="4.28s" begin="0.52s" calcMode="spline" values="178.528 272.327; 188.682 188.926; 188.682 188.926; 178.528 272.327" keyTimes="0; 0.187; 0.813; 1" keySplines="0.333 0 0.667 1; 0 0 1 1; 0.333 0 0.667 1" fill="freeze" /><g transform="rotate(-12)"><animateTransform repeatCount="indefinite" type="rotate" attributeName="transform" dur="0.24s" begin="2.235s" calcMode="spline" values="-12; 0" keyTimes="0; 1" keySplines="0 0 1 1" fill="freeze" /><g transform="scale(0.75,0.75)"><animateTransform repeatCount="indefinite" type="scale" attributeName="transform" dur="4.08s" begin="0.72s" calcMode="spline" values="0.75 0.75; 1 1; 1 1; 0.75 0.75" keyTimes="0; 0.147; 0.853; 1" keySplines="0.167 0.167 0.833 0.833; 0 0 1 1; 0.167 0.167 0.833 0.833" fill="freeze" /><g transform="translate(3.281,-17.318)"><g id="m"><g transform="translate(-7.92,-10.051)"><animateTransform repeatCount="indefinite" type="translate" attributeName="transform" dur="1.745s" begin="2.409s" calcMode="spline" values="-7.92 -10.051; -4.92 -16.551; -7.92 -10.051; -4.92 -16.551; -7.92 -10.051; -4.92 -16.551; -7.92 -10.051; -4.92 -16.551; -7.92 -10.051; -4.92 -16.551; -7.92 -10.051" keyTimes="0; 0.105; 0.2; 0.305; 0.4; 0.505; 0.6; 0.705; 0.8; 0.905; 1" keySplines="0.333 0 0.667 1; 0.333 0 0.667 1; 0.333 0 0.667 1; 0.333 0 0.667 1; 0.333 0 0.667 1; 0.333 0 0.667 1; 0.333 0 0.667 1; 0.333 0 0.667 1; 0.333 0 0.667 1; 0.333 0 0.667 1" fill="freeze" /><g transform="scale(1,1) translate(7.92,10.051)"><g transform="matrix(1,0,0,1,0,0)" id="e"><g transform="matrix(1,0,0,1,0,0)" id="e"><g id="G"><path fill="#232428" fill-opacity="1" d="M24.775,-43.028C41.5,-39.25,27.5,-10.75,32.978,-23.54C34.461,-27.003,34.458,-32.442,32.672,-35.91C30.735,-39.668,27.213,-42.693,23.25,-44.134C22.209,-44.515,21.118,-44.789,20.021,-44.949C17.645,-45.31,15.2,-45.178,12.873,-44.57C8.241,-43.364,10.681,-46.211,24.775,-43.028Z" /></g></g></g></g></g></g></g></g></g></g></g><g id="f"><g transform="translate(178.528,272.327)"><animateTransform repeatCount="indefinite" type="translate" attributeName="transform" dur="4.28s" begin="0.52s" calcMode="spline" values="178.528 272.327; 188.682 188.926; 188.682 188.926; 178.528 272.327" keyTimes="0; 0.187; 0.813; 1" keySplines="0.333 0 0.667 1; 0 0 1 1; 0.333 0 0.667 1" fill="freeze" /><g transform="rotate(-12)"><animateTransform repeatCount="indefinite" type="rotate" attributeName="transform" dur="0.24s" begin="2.235s" calcMode="spline" values="-12; 0" keyTimes="0; 1" keySplines="0 0 1 1" fill="freeze" /><g transform="scale(0.75,0.75)"><animateTransform repeatCount="indefinite" type="scale" attributeName="transform" dur="4.08s" begin="0.72s" calcMode="spline" values="0.75 0.75; 1 1; 1 1; 0.75 0.75" keyTimes="0; 0.147; 0.853; 1" keySplines="0.167 0.167 0.833 0.833; 0 0 1 1; 0.167 0.167 0.833 0.833" fill="freeze" /><g transform="translate(3.281,-17.318)"><g id="m"><g transform="translate(-7.92,-10.051)"><animateTransform repeatCount="indefinite" type="translate" attributeName="transform" dur="1.745s" begin="2.409s" calcMode="spline" values="-7.92 -10.051; -4.92 -16.551; -7.92 -10.051; -4.92 -16.551; -7.92 -10.051; -4.92 -16.551; -7.92 -10.051; -4.92 -16.551; -7.92 -10.051; -4.92 -16.551; -7.92 -10.051" keyTimes="0; 0.105; 0.2; 0.305; 0.4; 0.505; 0.6; 0.705; 0.8; 0.905; 1" keySplines="0.333 0 0.667 1; 0.333 0 0.667 1; 0.333 0 0.667 1; 0.333 0 0.667 1; 0.333 0 0.667 1; 0.333 0 0.667 1; 0.333 0 0.667 1; 0.333 0 0.667 1; 0.333 0 0.667 1; 0.333 0 0.667 1" fill="freeze" /><g transform="scale(1,1) translate(7.92,10.051)"><g transform="matrix(1,0,0,1,0,0)" id="e"><g transform="matrix(1,0,0,1,0,0)" id="e"><g id="G"><path fill="#000000" fill-opacity="1" d="M8.173,-41.307C8.173,-41.307,13.563,-48.672,23.243,-46.314C28.217,-45.102,32.51,-42.014,34.591,-37.336C34.978,-36.465,35.485,-35.651,36.243,-35.074C36.567,-34.827,36.912,-34.611,37.277,-34.43C37.436,-34.351,37.597,-34.279,37.761,-34.212C37.856,-34.173,38.165,-34.112,38.185,-33.996C38.234,-33.713,36.497,-33.822,36.274,-33.84C35.595,-33.894,34.916,-33.975,34.234,-33.928C33.933,-33.907,33.633,-33.863,33.339,-33.794C31.615,-38.741,27.817,-42.147,22.945,-44.075C18.073,-46.003,12.815,-43.735,8.173,-41.307Z" /></g></g></g></g></g></g></g></g></g></g></g><g id="f"><g transform="translate(178.528,272.327)"><animateTransform repeatCount="indefinite" type="translate" attributeName="transform" dur="4.28s" begin="0.52s" calcMode="spline" values="178.528 272.327; 188.682 188.926; 188.682 188.926; 178.528 272.327" keyTimes="0; 0.187; 0.813; 1" keySplines="0.333 0 0.667 1; 0 0 1 1; 0.333 0 0.667 1" fill="freeze" /><g transform="rotate(-12)"><animateTransform repeatCount="indefinite" type="rotate" attributeName="transform" dur="0.24s" begin="2.235s" calcMode="spline" values="-12; 0" keyTimes="0; 1" keySplines="0 0 1 1" fill="freeze" /><g transform="scale(0.75,0.75)"><animateTransform repeatCount="indefinite" type="scale" attributeName="transform" dur="4.08s" begin="0.72s" calcMode="spline" values="0.75 0.75; 1 1; 1 1; 0.75 0.75" keyTimes="0; 0.147; 0.853; 1" keySplines="0.167 0.167 0.833 0.833; 0 0 1 1; 0.167 0.167 0.833 0.833" fill="freeze" /><g transform="translate(3.281,-17.318)"><g id="m"><g transform="translate(-7.92,-10.051)"><animateTransform repeatCount="indefinite" type="translate" attributeName="transform" dur="1.745s" begin="2.409s" calcMode="spline" values="-7.92 -10.051; -4.92 -16.551; -7.92 -10.051; -4.92 -16.551; -7.92 -10.051; -4.92 -16.551; -7.92 -10.051; -4.92 -16.551; -7.92 -10.051; -4.92 -16.551; -7.92 -10.051" keyTimes="0; 0.105; 0.2; 0.305; 0.4; 0.505; 0.6; 0.705; 0.8; 0.905; 1" keySplines="0.333 0 0.667 1; 0.333 0 0.667 1; 0.333 0 0.667 1; 0.333 0 0.667 1; 0.333 0 0.667 1; 0.333 0 0.667 1; 0.333 0 0.667 1; 0.333 0 0.667 1; 0.333 0 0.667 1; 0.333 0 0.667 1" fill="freeze" /><g transform="scale(1,1) translate(7.92,10.051)"><g id="e"><g transform="translate(-26.91,-17.821)"><g transform="scale(1,1)"><animateTransform repeatCount="indefinite" type="scale" attributeName="transform" dur="0.209s" begin="2.235s" calcMode="spline" values="1 1; 0 0" keyTimes="0; 1" keySplines="0.167 0.167 0.833 0.833" fill="freeze" /><g transform="translate(-10.59,5.821)"><g id="G"><path fill="#ffffff" fill-opacity="1" d="M7.946,-37.553C6.845,-29.399,5.347,-22.722,1.971,-15.51C1.324,-14.12,1.511,-12.462,2.499,-11.293C2.598,-11.175,2.698,-11.057,2.8,-10.947C4.746,-8.72,7.238,-6.969,9.992,-5.892C13.265,-4.62,16.644,-4.135,20.025,-4.778C20.873,-4.935,21.663,-5.366,22.237,-6.012C27.229,-11.551,30.145,-16.961,32.228,-24.29C33.255,-27.915,34.458,-32.442,32.672,-35.91C30.735,-39.668,27.213,-42.693,23.25,-44.134C22.209,-44.515,21.118,-44.789,20.021,-44.949C17.645,-45.31,15.2,-45.178,12.873,-44.57C8.241,-43.364,8.521,-41.814,7.946,-37.553Z" /></g></g></g></g></g></g></g></g></g></g></g></g></g><g id="f"><g transform="translate(178.528,272.327)"><animateTransform repeatCount="indefinite" type="translate" attributeName="transform" dur="4.28s" begin="0.52s" calcMode="spline" values="178.528 272.327; 188.682 188.926; 188.682 188.926; 178.528 272.327" keyTimes="0; 0.187; 0.813; 1" keySplines="0.333 0 0.667 1; 0 0 1 1; 0.333 0 0.667 1" fill="freeze" /><g transform="rotate(-12)"><animateTransform repeatCount="indefinite" type="rotate" attributeName="transform" dur="0.24s" begin="2.235s" calcMode="spline" values="-12; 0" keyTimes="0; 1" keySplines="0 0 1 1" fill="freeze" /><g transform="scale(0.75,0.75)"><animateTransform repeatCount="indefinite" type="scale" attributeName="transform" dur="4.08s" begin="0.72s" calcMode="spline" values="0.75 0.75; 1 1; 1 1; 0.75 0.75" keyTimes="0; 0.147; 0.853; 1" keySplines="0.167 0.167 0.833 0.833; 0 0 1 1; 0.167 0.167 0.833 0.833" fill="freeze" /><g transform="translate(3.281,-17.318)"><g id="m"><g transform="translate(-7.92,-10.051)"><animateTransform repeatCount="indefinite" type="translate" attributeName="transform" dur="1.745s" begin="2.409s" calcMode="spline" values="-7.92 -10.051; -4.92 -16.551; -7.92 -10.051; -4.92 -16.551; -7.92 -10.051; -4.92 -16.551; -7.92 -10.051; -4.92 -16.551; -7.92 -10.051; -4.92 -16.551; -7.92 -10.051" keyTimes="0; 0.105; 0.2; 0.305; 0.4; 0.505; 0.6; 0.705; 0.8; 0.905; 1" keySplines="0.333 0 0.667 1; 0.333 0 0.667 1; 0.333 0 0.667 1; 0.333 0 0.667 1; 0.333 0 0.667 1; 0.333 0 0.667 1; 0.333 0 0.667 1; 0.333 0 0.667 1; 0.333 0 0.667 1; 0.333 0 0.667 1" fill="freeze" /><g transform="scale(1,1) translate(7.92,10.051)"><g id="e"><g transform="translate(-26.91,-17.821)"><g transform="scale(1,1)"><animateTransform repeatCount="indefinite" type="scale" attributeName="transform" dur="0.209s" begin="2.235s" calcMode="spline" values="1 1; 0 0" keyTimes="0; 1" keySplines="0.167 0.167 0.833 0.833" fill="freeze" /><g transform="translate(-10.59,5.821)"><g id="e"><g transform="translate(15.59,-22.821)"><animateTransform repeatCount="indefinite" type="translate" attributeName="transform" dur="0.242s" begin="1.993s" calcMode="spline" values="15.59 -22.821; 15.59 -22.821" keyTimes="0; 1" keySplines="0 0 1 1" fill="freeze" /><g transform="scale(1,1)"><animateTransform repeatCount="indefinite" type="scale" attributeName="transform" dur="0.349s" begin="1.644s" calcMode="spline" values="1 1; 0.2 0.2; 1 1" keyTimes="0; 0.5; 1" keySplines="0.333 0 0.667 1; 0.333 0 0.667 1" fill="freeze" /><g transform="translate(-17.59,24.821)"><g id="G"><path fill="#000000" fill-opacity="1" d="M10.815,-26.623C8.876,-19.333,10.338,-12.616,14.08,-11.621C17.822,-10.626,22.427,-15.729,24.366,-23.019C26.305,-30.309,24.843,-37.027,21.101,-38.022C17.359,-39.017,12.754,-33.913,10.815,-26.623Z" /></g><g id="G"><path fill="#ffffff" fill-opacity="1" d="M14.425,-25.037C13.519,-21.631,14.202,-18.492,15.95,-18.027C17.698,-17.562,19.85,-19.947,20.756,-23.353C21.662,-26.759,20.978,-29.897,19.23,-30.362C17.482,-30.827,15.331,-28.443,14.425,-25.037Z" /></g></g></g></g></g></g></g></g></g></g></g></g></g></g></g></g></g><g id="f"><g transform="translate(178.528,272.327)"><animateTransform repeatCount="indefinite" type="translate" attributeName="transform" dur="4.28s" begin="0.52s" calcMode="spline" values="178.528 272.327; 188.682 188.926; 188.682 188.926; 178.528 272.327" keyTimes="0; 0.187; 0.813; 1" keySplines="0.333 0 0.667 1; 0 0 1 1; 0.333 0 0.667 1" fill="freeze" /><g transform="rotate(-12)"><animateTransform repeatCount="indefinite" type="rotate" attributeName="transform" dur="0.24s" begin="2.235s" calcMode="spline" values="-12; 0" keyTimes="0; 1" keySplines="0 0 1 1" fill="freeze" /><g transform="scale(0.75,0.75)"><animateTransform repeatCount="indefinite" type="scale" attributeName="transform" dur="4.08s" begin="0.72s" calcMode="spline" values="0.75 0.75; 1 1; 1 1; 0.75 0.75" keyTimes="0; 0.147; 0.853; 1" keySplines="0.167 0.167 0.833 0.833; 0 0 1 1; 0.167 0.167 0.833 0.833" fill="freeze" /><g transform="translate(3.281,-17.318)"><g id="m"><g transform="translate(-7.92,-10.051)"><animateTransform repeatCount="indefinite" type="translate" attributeName="transform" dur="1.745s" begin="2.409s" calcMode="spline" values="-7.92 -10.051; -4.92 -16.551; -7.92 -10.051; -4.92 -16.551; -7.92 -10.051; -4.92 -16.551; -7.92 -10.051; -4.92 -16.551; -7.92 -10.051; -4.92 -16.551; -7.92 -10.051" keyTimes="0; 0.105; 0.2; 0.305; 0.4; 0.505; 0.6; 0.705; 0.8; 0.905; 1" keySplines="0.333 0 0.667 1; 0.333 0 0.667 1; 0.333 0 0.667 1; 0.333 0 0.667 1; 0.333 0 0.667 1; 0.333 0 0.667 1; 0.333 0 0.667 1; 0.333 0 0.667 1; 0.333 0 0.667 1; 0.333 0 0.667 1" fill="freeze" /><g transform="scale(1,1) translate(7.92,10.051)"><g id="e"><g transform="translate(-26.91,-17.821)"><g transform="scale(1,1)"><animateTransform repeatCount="indefinite" type="scale" attributeName="transform" dur="0.209s" begin="2.235s" calcMode="spline" values="1 1; 0 0" keyTimes="0; 1" keySplines="0.167 0.167 0.833 0.833" fill="freeze" /><g transform="translate(-10.59,5.821)"><g transform="matrix(1,0,0,1,0,0)" id="m"><g id="G"><path fill="#ffffff" fill-opacity="1" d="M7.946,-37.553C6.845,-29.399,5.347,-22.722,1.971,-15.51C1.324,-14.12,1.511,-12.462,2.499,-11.293C2.598,-11.175,2.698,-11.057,2.8,-10.947C4.746,-8.72,7.238,-6.969,9.992,-5.892C13.265,-4.62,16.644,-4.135,20.025,-4.778C20.873,-4.935,21.663,-5.366,22.237,-6.012C27.229,-11.551,30.145,-16.961,32.228,-24.29C33.255,-27.915,34.458,-32.442,32.672,-35.91C30.735,-39.668,27.213,-42.693,23.25,-44.134C22.209,-44.515,21.118,-44.789,20.021,-44.949C17.645,-45.31,15.2,-45.178,12.873,-44.57C8.241,-43.364,8.521,-41.814,7.946,-37.553Z" /></g></g></g></g></g></g></g></g></g></g></g></g></g></g><g id="f"><g transform="translate(178.528,272.327)"><animateTransform repeatCount="indefinite" type="translate" attributeName="transform" dur="4.28s" begin="0.52s" calcMode="spline" values="178.528 272.327; 188.682 188.926; 188.682 188.926; 178.528 272.327" keyTimes="0; 0.187; 0.813; 1" keySplines="0.333 0 0.667 1; 0 0 1 1; 0.333 0 0.667 1" fill="freeze" /><g transform="rotate(-12)"><animateTransform repeatCount="indefinite" type="rotate" attributeName="transform" dur="0.24s" begin="2.235s" calcMode="spline" values="-12; 0" keyTimes="0; 1" keySplines="0 0 1 1" fill="freeze" /><g transform="scale(0.75,0.75)"><animateTransform repeatCount="indefinite" type="scale" attributeName="transform" dur="4.08s" begin="0.72s" calcMode="spline" values="0.75 0.75; 1 1; 1 1; 0.75 0.75" keyTimes="0; 0.147; 0.853; 1" keySplines="0.167 0.167 0.833 0.833; 0 0 1 1; 0.167 0.167 0.833 0.833" fill="freeze" /><g transform="translate(3.281,-17.318)"><g id="m"><g transform="translate(-7.92,-10.051)"><animateTransform repeatCount="indefinite" type="translate" attributeName="transform" dur="1.745s" begin="2.409s" calcMode="spline" values="-7.92 -10.051; -4.92 -16.551; -7.92 -10.051; -4.92 -16.551; -7.92 -10.051; -4.92 -16.551; -7.92 -10.051; -4.92 -16.551; -7.92 -10.051; -4.92 -16.551; -7.92 -10.051" keyTimes="0; 0.105; 0.2; 0.305; 0.4; 0.505; 0.6; 0.705; 0.8; 0.905; 1" keySplines="0.333 0 0.667 1; 0.333 0 0.667 1; 0.333 0 0.667 1; 0.333 0 0.667 1; 0.333 0 0.667 1; 0.333 0 0.667 1; 0.333 0 0.667 1; 0.333 0 0.667 1; 0.333 0 0.667 1; 0.333 0 0.667 1" fill="freeze" /><g transform="scale(1,1) translate(7.92,10.051)"><g id="e"><g transform="translate(-26.91,-17.821)"><g transform="scale(1,1)"><animateTransform repeatCount="indefinite" type="scale" attributeName="transform" dur="0.209s" begin="2.235s" calcMode="spline" values="1 1; 0 0" keyTimes="0; 1" keySplines="0.167 0.167 0.833 0.833" fill="freeze" /><g transform="translate(-10.59,5.821)"><g transform="matrix(1,0,0,1,0,0)" id="e"><g id="G"><path fill="#232428" fill-opacity="1" d="M24.775,-43.028C41.5,-39.25,27.5,-10.75,32.978,-23.54C34.461,-27.003,34.458,-32.442,32.672,-35.91C30.735,-39.668,27.213,-42.693,23.25,-44.134C22.209,-44.515,21.118,-44.789,20.021,-44.949C17.645,-45.31,15.2,-45.178,12.873,-44.57C8.241,-43.364,10.681,-46.211,24.775,-43.028Z" /></g></g></g></g></g></g></g></g></g></g></g></g></g></g><g id="f"><g transform="translate(178.528,272.327)"><animateTransform repeatCount="indefinite" type="translate" attributeName="transform" dur="4.28s" begin="0.52s" calcMode="spline" values="178.528 272.327; 188.682 188.926; 188.682 188.926; 178.528 272.327" keyTimes="0; 0.187; 0.813; 1" keySplines="0.333 0 0.667 1; 0 0 1 1; 0.333 0 0.667 1" fill="freeze" /><g transform="rotate(-12)"><animateTransform repeatCount="indefinite" type="rotate" attributeName="transform" dur="0.24s" begin="2.235s" calcMode="spline" values="-12; 0" keyTimes="0; 1" keySplines="0 0 1 1" fill="freeze" /><g transform="scale(0.75,0.75)"><animateTransform repeatCount="indefinite" type="scale" attributeName="transform" dur="4.08s" begin="0.72s" calcMode="spline" values="0.75 0.75; 1 1; 1 1; 0.75 0.75" keyTimes="0; 0.147; 0.853; 1" keySplines="0.167 0.167 0.833 0.833; 0 0 1 1; 0.167 0.167 0.833 0.833" fill="freeze" /><g transform="translate(3.281,-17.318)"><g id="m"><g transform="translate(-7.92,-10.051)"><animateTransform repeatCount="indefinite" type="translate" attributeName="transform" dur="1.745s" begin="2.409s" calcMode="spline" values="-7.92 -10.051; -4.92 -16.551; -7.92 -10.051; -4.92 -16.551; -7.92 -10.051; -4.92 -16.551; -7.92 -10.051; -4.92 -16.551; -7.92 -10.051; -4.92 -16.551; -7.92 -10.051" keyTimes="0; 0.105; 0.2; 0.305; 0.4; 0.505; 0.6; 0.705; 0.8; 0.905; 1" keySplines="0.333 0 0.667 1; 0.333 0 0.667 1; 0.333 0 0.667 1; 0.333 0 0.667 1; 0.333 0 0.667 1; 0.333 0 0.667 1; 0.333 0 0.667 1; 0.333 0 0.667 1; 0.333 0 0.667 1; 0.333 0 0.667 1" fill="freeze" /><g transform="scale(1,1) translate(7.92,10.051)"><g id="e"><g transform="translate(-14.32,-52.287)"><animateTransform repeatCount="indefinite" type="translate" attributeName="transform" dur="0.209s" begin="2.2s" calcMode="spline" values="-14.32 -52.287; -22.32 -26.787" keyTimes="0; 1" keySplines="0.333 0 0.667 1" fill="freeze" /><g transform="rotate(0)"><animateTransform repeatCount="indefinite" type="rotate" attributeName="transform" dur="0.209s" begin="2.2s" calcMode="spline" values="0; 38" keyTimes="0; 1" keySplines="0.333 0 0.667 1" fill="freeze" /><g transform="scale(1,1)"><animateTransform repeatCount="indefinite" type="scale" attributeName="transform" dur="0.209s" begin="2.2s" calcMode="spline" values="1 1; 1 -1.07" keyTimes="0; 1" keySplines="0.333 0 0.667 1" fill="freeze" /><g transform="translate(-23.18,40.287)"><g id="G"><path fill="#000000" fill-opacity="1" d="M8.173,-41.307C8.173,-41.307,13.563,-48.672,23.243,-46.314C28.217,-45.102,32.51,-42.014,34.591,-37.336C34.978,-36.465,35.485,-35.651,36.243,-35.074C36.567,-34.827,36.912,-34.611,37.277,-34.43C37.436,-34.351,37.597,-34.279,37.761,-34.212C37.856,-34.173,38.165,-34.112,38.185,-33.996C38.234,-33.713,36.497,-33.822,36.274,-33.84C35.595,-33.894,34.916,-33.975,34.234,-33.928C33.933,-33.907,33.633,-33.863,33.339,-33.794C31.615,-38.741,27.817,-42.147,22.945,-44.075C18.073,-46.003,12.815,-43.735,8.173,-41.307Z" /></g></g></g></g></g></g></g></g></g></g></g></g></g></g><g id="f"><g transform="translate(178.528,272.327)"><animateTransform repeatCount="indefinite" type="translate" attributeName="transform" dur="4.28s" begin="0.52s" calcMode="spline" values="178.528 272.327; 188.682 188.926; 188.682 188.926; 178.528 272.327" keyTimes="0; 0.187; 0.813; 1" keySplines="0.333 0 0.667 1; 0 0 1 1; 0.333 0 0.667 1" fill="freeze" /><g transform="rotate(-12)"><animateTransform repeatCount="indefinite" type="rotate" attributeName="transform" dur="0.24s" begin="2.235s" calcMode="spline" values="-12; 0" keyTimes="0; 1" keySplines="0 0 1 1" fill="freeze" /><g transform="scale(0.75,0.75)"><animateTransform repeatCount="indefinite" type="scale" attributeName="transform" dur="4.08s" begin="0.72s" calcMode="spline" values="0.75 0.75; 1 1; 1 1; 0.75 0.75" keyTimes="0; 0.147; 0.853; 1" keySplines="0.167 0.167 0.833 0.833; 0 0 1 1; 0.167 0.167 0.833 0.833" fill="freeze" /><g transform="translate(3.281,-17.318)"><g id="m"><g transform="translate(-7.92,-10.051)"><animateTransform repeatCount="indefinite" type="translate" attributeName="transform" dur="1.745s" begin="2.409s" calcMode="spline" values="-7.92 -10.051; -4.92 -16.551; -7.92 -10.051; -4.92 -16.551; -7.92 -10.051; -4.92 -16.551; -7.92 -10.051; -4.92 -16.551; -7.92 -10.051; -4.92 -16.551; -7.92 -10.051" keyTimes="0; 0.105; 0.2; 0.305; 0.4; 0.505; 0.6; 0.705; 0.8; 0.905; 1" keySplines="0.333 0 0.667 1; 0.333 0 0.667 1; 0.333 0 0.667 1; 0.333 0 0.667 1; 0.333 0 0.667 1; 0.333 0 0.667 1; 0.333 0 0.667 1; 0.333 0 0.667 1; 0.333 0 0.667 1; 0.333 0 0.667 1" fill="freeze" /><g transform="scale(1,1) translate(7.92,10.051)"><g id="G"><g id="G"><path fill="#ffffff" fill-opacity="1" d="M4.033,1.725C2.402,7.01,-5.326,9.316,-13.228,6.878C-21.13,4.44,-26.214,-1.82,-24.583,-7.105C-22.952,-12.39,-15.225,-14.697,-7.323,-12.259C0.579,-9.821,5.664,-3.56,4.033,1.725Z" /></g><g id="G"><path fill="#000000" fill-opacity="1" d="M-8.358,-5.543C-6.222,-6.224,-4.185,-7.216,-2.331,-8.477C-1.995,-8.706,-1.658,-8.949,-1.427,-9.283C-1.196,-9.617,-1.086,-10.062,-1.241,-10.437C-1.389,-10.794,-1.75,-11.028,-2.127,-11.112C-2.504,-11.196,-2.897,-11.152,-3.278,-11.091C-4.818,-10.843,-6.312,-10.31,-7.66,-9.526C-7.498,-10.798,-7.794,-11.993,-8.35,-13.149C-8.56,-13.586,-8.827,-14.011,-9.217,-14.299C-9.607,-14.587,-10.14,-14.718,-10.589,-14.535C-11.367,-14.218,-11.538,-13.202,-11.518,-12.363C-11.473,-10.475,-11.042,-8.596,-10.262,-6.876C-10.076,-6.466,-9.865,-6.058,-9.542,-5.745C-9.219,-5.432,-8.787,-5.406,-8.358,-5.543Z" /></g><g id="G"><path stroke-linejoin="round" stroke-linecap="round" stroke-width="0.781" stroke-opacity="1" stroke="#000000" d="M5.183,-3.524C3.462,-0.991,0.189,0.387,-2.825,-0.153C-5.839,-0.693,-8.431,-3.119,-9.167,-6.092C-11.619,-4.257,-15.161,-4.02,-17.836,-5.511C-20.511,-7.002,-22.171,-10.141,-21.899,-13.191" /></g></g><g id="G"><g id="G"><path stroke-linejoin="round" stroke-linecap="round" stroke-width="0.781" stroke-opacity="1" stroke="#000000" d="M-57.648,-34.953C-49.708,-26.715,-41.767,-18.478,-33.827,-10.24" /></g><g id="G"><path stroke-linejoin="round" stroke-linecap="round" stroke-width="0.781" stroke-opacity="1" stroke="#000000" d="M-58.729,-11.878C-54.236,-11.248,-49.744,-10.617,-45.251,-9.987" /></g><g id="G"><path stroke-linejoin="round" stroke-linecap="round" stroke-width="0.781" stroke-opacity="1" stroke="#000000" d="M-34.97,-4.494C-45.252,-1.961,-55.535,0.572,-65.817,3.105" /></g></g><g id="G"><g id="G"><path stroke-linejoin="round" stroke-linecap="round" stroke-width="0.781" stroke-opacity="1" stroke="#000000" d="M13.381,0.927C19.913,-1.712,26.446,-4.351,32.978,-6.99" /></g><g id="G"><path stroke-linejoin="round" stroke-linecap="round" stroke-width="0.781" stroke-opacity="1" stroke="#000000" d="M12.97,5.198C14.225,5.704,15.48,6.21,16.735,6.716" /></g></g></g></g></g></g></g></g></g></g><g transform="matrix(1,0,0,1,175,175)" id="L"><g id="G"><path fill="#d38e6e" fill-opacity="1" d="M50.799,9.432L35.7,100L-51.171,100L-60.25,55.694L-62.886,42.797L37.63,43.395L50.799,9.432Z" /></g><g id="G"><path fill="#c16a48" fill-opacity="1" d="M70.723,40.16L69.514,46.045L62.501,80.266L35.7,100L50.799,9.432L54.877,45.406L70.723,40.16Z" /></g><g id="G"><path fill="#ffd4c4" fill-opacity="1" d="M83.474,35.929L70.719,40.161L54.878,45.406L50.8,9.435L77.015,9.435L83.474,35.929Z" /></g><g id="G"><path fill="#a34224" fill-opacity="1" d="M70.723,40.16L69.514,46.045L65.831,47.486L49.155,53.982L50.799,9.432L54.877,45.406L70.723,40.16Z" /></g><g id="G"><path fill="#ffd4c4" fill-opacity="1" d="M50.8,9.435L37.63,43.391L-62.89,42.793L-83.474,42.668L-69.716,9.435L50.8,9.435Z" /></g><g id="G"><path fill="#c16a48" fill-opacity="1" d="M50.799,9.432L40.036,56.523L-60.25,55.694L-62.886,42.797L37.63,43.395L50.799,9.432Z" /></g></g><g transform="matrix(1,0,0,1,175,175)" id="h"><g><g transform="translate(31.873,3.694)"><g transform="scale(0,0)"><animateTransform repeatCount="indefinite" type="scale" attributeName="transform" dur="0.4s" begin="0.12s" calcMode="spline" values="0 0; 1 1" keyTimes="0; 1" keySplines="0.333 0 0.667 1" fill="freeze" /><g id="G" transform="translate(-31.873,-3.694)"><g id="G"><g id="G"><path fill="#f9a541" fill-opacity="1" d="M39.237,2.399C43.773,3.07,47.597,7.091,48.032,11.661C48.245,13.98,47.509,16.568,45.533,17.796C44.109,18.676,42.183,18.673,40.769,17.783C39.847,17.211,39.168,16.292,38.856,15.253C39.009,17.072,39.031,18.916,38.424,20.635C37.647,22.894,35.46,24.867,33.08,24.58C31.377,24.383,29.963,23.071,29.165,21.56C28.986,21.213,28.835,20.869,28.701,20.5C28.698,21.793,28.18,23.158,27.089,23.857C26.073,24.524,24.702,24.483,23.587,23.984C22.474,23.471,21.597,22.553,20.899,21.561C19.079,18.958,18.322,15.654,18.834,12.531C19.16,10.072,20.692,6.564,22.987,5.265C25.356,3.934,28.989,3.783,31.614,3.175C34.121,2.607,36.701,2.021,39.237,2.399Z" /></g><g id="G"><path stroke-linejoin="round" stroke-linecap="round" stroke-width="1" stroke-opacity="1" stroke="#2f333e" d="M28.88,21.373C27.996,18.827,27.975,15.99,28.82,13.431" /></g></g><g id="G"><path stroke-linejoin="round" stroke-linecap="round" stroke-width="1" stroke-opacity="1" stroke="#2f333e" d="M39.135,16.24C38.166,15.01,37.978,13.214,38.671,11.81" /></g></g></g></g></g><g><g transform="translate(-34.875,4.805)"><g transform="scale(0,0)"><animateTransform repeatCount="indefinite" type="scale" attributeName="transform" dur="0.4s" begin="0.32s" calcMode="spline" values="0 0; 1 1" keyTimes="0; 1" keySplines="0.333 0 0.667 1" fill="freeze" /><g id="G" transform="translate(34.875,-4.805)"><g id="G"><path fill="#f9a541" fill-opacity="1" d="M-42.634,2.984C-47.199,3.408,-51.236,7.216,-51.918,11.755C-52.256,14.059,-51.661,16.683,-49.755,18.017C-48.381,18.973,-46.458,19.075,-44.998,18.263C-44.046,17.742,-43.318,16.86,-42.95,15.839C-43.201,17.648,-43.324,19.489,-42.811,21.238C-42.157,23.535,-40.08,25.624,-37.688,25.466C-35.977,25.361,-34.494,24.129,-33.615,22.663C-33.417,22.326,-33.248,21.991,-33.094,21.63C-33.162,22.921,-32.718,24.312,-31.667,25.069C-30.689,25.79,-29.317,25.823,-28.177,25.385C-27.038,24.933,-26.113,24.065,-25.362,23.112C-23.404,20.612,-22.468,17.353,-22.81,14.207C-23.002,11.734,-24.343,8.148,-26.564,6.727C-28.857,5.27,-32.476,4.922,-35.064,4.172C-37.536,3.469,-40.081,2.744,-42.634,2.984Z" /></g><g id="G"><path stroke-linejoin="round" stroke-linecap="round" stroke-width="1" stroke-opacity="1" stroke="#2f333e" d="M-33.321,22.492C-32.3,19.998,-32.126,17.165,-32.831,14.564" /></g><g id="G"><path stroke-linejoin="round" stroke-linecap="round" stroke-width="1" stroke-opacity="1" stroke="#2f333e" d="M-43.282,16.81C-42.247,15.634,-41.963,13.851,-42.579,12.411" /></g></g></g></g></g></g></svg>