<?xml version="1.0" encoding="utf-8"?><svg fill="none" viewBox="0 0 350 350" xmlns="http://www.w3.org/2000/svg"><defs /><g transform="matrix(1,0,0,1,175,175)" id="b"><g id="G"><path fill="#c16a48" fill-opacity="1" d="M-69.716,9.435L-9.548,-0.694L77.015,9.435L50.799,9.432L-69.716,9.435Z" /></g><g id="G"><path fill="#d38e6e" fill-opacity="1" d="M50.799,9.432L35.7,100L-51.171,100L-60.25,55.694L-62.886,42.797L37.63,43.395L50.799,9.432Z" /></g><g id="G"><path fill="#c16a48" fill-opacity="1" d="M70.723,40.16L69.514,46.045L62.501,80.266L35.7,100L50.799,9.432L54.877,45.406L70.723,40.16Z" /></g><g id="G"><path fill="#ffd4c4" fill-opacity="1" d="M83.474,35.929L70.719,40.161L54.878,45.406L50.8,9.435L77.015,9.435L83.474,35.929Z" /></g><g id="G"><path fill="#a34224" fill-opacity="1" d="M70.723,40.16L69.514,46.045L65.831,47.486L49.155,53.982L50.799,9.432L54.877,45.406L70.723,40.16Z" /></g><g id="G"><path fill="#ffd4c4" fill-opacity="1" d="M50.8,9.435L37.63,43.391L-62.89,42.793L-83.474,42.668L-69.716,9.435L50.8,9.435Z" /></g><g id="G"><path fill="#c16a48" fill-opacity="1" d="M50.799,9.432L40.036,56.523L-60.25,55.694L-62.886,42.797L37.63,43.395L50.799,9.432Z" /></g></g><g id="f"><g transform="translate(178.528,272.327)"><animateTransform repeatCount="indefinite" type="translate" attributeName="transform" dur="4.28s" begin="0.52s" calcMode="spline" values="178.528 272.327; 188.682 188.926; 188.682 188.926; 178.528 272.327" keyTimes="0; 0.187; 0.813; 1" keySplines="0.333 0 0.667 1; 0 0 1 1; 0.333 0 0.667 1" fill="freeze" /><g transform="rotate(-12)"><animateTransform repeatCount="indefinite" type="rotate" attributeName="transform" dur="0.24s" begin="2.235s" calcMode="spline" values="-12; 0" keyTimes="0; 1" keySplines="0 0 1 1" fill="freeze" /><g transform="scale(0.75,0.75)"><animateTransform repeatCount="indefinite" type="scale" attributeName="transform" dur="4.08s" begin="0.72s" calcMode="spline" values="0.75 0.75; 1 1; 1 1; 0.75 0.75" keyTimes="0; 0.147; 0.853; 1" keySplines="0.167 0.167 0.833 0.833; 0 0 1 1; 0.167 0.167 0.833 0.833" fill="freeze" /><g transform="translate(3.281,-17.318)"><g transform="matrix(1,0,0,1,-0.936,4.401)" id="e"><g><g transform="translate(25.949,-45.932)"><g transform="rotate(0)"><animateTransform repeatCount="indefinite" type="rotate" attributeName="transform" dur="0.8s" begin="0.12s" calcMode="spline" values="0; 5; -5" keyTimes="0; 0.5; 1" keySplines="0.333 0 0.833 1; 0.167 0 0.833 1" fill="freeze" /><g id="G" transform="translate(-25.949,45.932)"><g id="G"><path fill="#f9a541" fill-opacity="1" d="M56.124,-73.078C48.634,-68.754,42.204,-62.586,37.514,-55.312C34.948,-58.192,32.122,-60.788,29.055,-63.009C27.521,-64.125,25.932,-65.153,24.302,-66.094C31.706,-70.864,40.27,-73.83,49.039,-74.631C51.482,-74.854,54.208,-74.816,56.032,-73.172C56.066,-73.144,56.101,-73.107,56.124,-73.078Z" /></g><g id="G"><path fill="#ffffff" fill-opacity="1" d="M57.153,-63.878C54.981,-56.278,51.109,-49.179,45.926,-43.228C43.583,-47.594,40.763,-51.686,37.514,-55.312C42.204,-62.586,48.634,-68.754,56.124,-73.078C58.459,-70.856,58.038,-67.008,57.153,-63.878Z" /></g></g></g></g></g><g><g transform="translate(-26.358,-58.206)"><g transform="rotate(0)"><animateTransform repeatCount="indefinite" type="rotate" attributeName="transform" dur="0.8s" begin="0.12s" calcMode="spline" values="0; -5; 5" keyTimes="0; 0.5; 1" keySplines="0.333 0 0.833 1; 0.167 0 0.833 1" fill="freeze" /><g id="G" transform="translate(26.358,58.206)"><g id="G"><path fill="#ffffff" fill-opacity="1" d="M-33.637,-68.595C-38.574,-66.185,-43.187,-63.106,-47.324,-59.497C-49.066,-71.194,-48.074,-83.297,-44.418,-94.531C-43.738,-96.61,-42.778,-98.871,-40.756,-99.691C-39.785,-100.087,-38.772,-100.074,-37.777,-99.812C-36.397,-97.866,-35.573,-95.381,-35.018,-93.023C-33.13,-85.043,-32.674,-76.735,-33.637,-68.595Z" /></g><g id="G"><path fill="#f9a541" fill-opacity="1" d="M-15.848,-73.987C-18.891,-73.58,-21.91,-72.93,-24.858,-72.054C-27.895,-71.152,-30.845,-69.992,-33.681,-68.614C-32.694,-76.751,-33.135,-85.058,-34.99,-93.046C-35.538,-95.406,-36.355,-97.893,-37.729,-99.843C-36.279,-99.458,-34.85,-98.533,-33.644,-97.588C-25.792,-91.439,-19.625,-83.2,-15.848,-73.987Z" /></g></g></g></g></g></g></g></g></g></g></g><g id="f"><g transform="translate(178.528,272.327)"><animateTransform repeatCount="indefinite" type="translate" attributeName="transform" dur="4.28s" begin="0.52s" calcMode="spline" values="178.528 272.327; 188.682 188.926; 188.682 188.926; 178.528 272.327" keyTimes="0; 0.187; 0.813; 1" keySplines="0.333 0 0.667 1; 0 0 1 1; 0.333 0 0.667 1" fill="freeze" /><g transform="rotate(-12)"><animateTransform repeatCount="indefinite" type="rotate" attributeName="transform" dur="0.24s" begin="2.235s" calcMode="spline" values="-12; 0" keyTimes="0; 1" keySplines="0 0 1 1" fill="freeze" /><g transform="scale(0.75,0.75)"><animateTransform repeatCount="indefinite" type="scale" attributeName="transform" dur="4.08s" begin="0.72s" calcMode="spline" values="0.75 0.75; 1 1; 1 1; 0.75 0.75" keyTimes="0; 0.147; 0.853; 1" keySplines="0.167 0.167 0.833 0.833; 0 0 1 1; 0.167 0.167 0.833 0.833" fill="freeze" /><g transform="translate(3.281,-17.318)"><g id="G"><path fill="#f9a541" fill-opacity="1" d="M53.272,-3.945C54.317,-4.121,55.362,-4.287,56.408,-4.453C55.94,-4.386,53.977,-1.015,53.462,-0.489C52.267,0.764,50.912,1.869,49.435,2.779C47.969,3.698,46.383,4.434,44.722,4.95C43.682,5.28,40.639,5.368,40.094,6.113C41.147,6.637,42.43,6.89,43.557,7.232C37.953,10.709,31.148,12.18,24.601,11.368C10.235,17.687,-5.434,19.619,-20.433,13.986C-36.867,7.816,-51.352,-4.778,-59.395,-20.406C-60.234,-20.756,-61.023,-21.213,-61.72,-21.793C-63.677,-23.424,-64.782,-25.82,-65.817,-28.14C-64.54,-26.813,-63.056,-25.682,-61.442,-24.801C-61.872,-25.81,-62.274,-26.833,-62.644,-27.858C-63.143,-29.242,-63.449,-30.665,-63.581,-32.096L-63.582,-32.106C-64.015,-32.826,-64.369,-33.585,-64.634,-34.384C-65.44,-36.779,-65.426,-39.441,-64.601,-41.823C-64.314,-40.387,-63.804,-38.994,-63.1,-37.723C-62.802,-38.877,-62.368,-40.003,-61.815,-41.079C-58.209,-48.049,-53.244,-54.318,-47.324,-59.497C-43.187,-63.106,-38.574,-66.185,-33.637,-68.595C-30.805,-69.981,-27.858,-71.15,-24.824,-72.061C-21.881,-72.952,-18.862,-73.604,-15.82,-74.02C-12.922,-74.432,-10.001,-74.62,-7.081,-74.601C-0.169,-74.578,6.733,-73.409,13.268,-71.162C17.102,-69.842,20.807,-68.159,24.302,-66.094C25.932,-65.153,27.521,-64.125,29.055,-63.009C32.122,-60.788,34.948,-58.192,37.514,-55.312C40.763,-51.686,43.583,-47.594,45.926,-43.228C50.087,-35.516,52.789,-26.926,53.751,-18.4C53.963,-16.585,53.857,-14.749,53.464,-12.998C53.292,-12.238,53.067,-11.495,52.788,-10.776C55.01,-10.935,57.206,-11.453,59.255,-12.317C58.408,-8.912,56.227,-5.858,53.272,-3.945Z" /></g><g id="G"><path fill="#d07d23" fill-opacity="1" d="M13.268,-71.162C9.2,-66.962,5.92,-62.005,3.673,-56.604C3.858,-61.48,3.007,-66.396,1.214,-70.941C0.27,-69.444,-0.664,-67.95,-1.598,-66.454L-7.081,-74.601C-0.169,-74.578,6.733,-73.409,13.268,-71.162Z" /></g></g></g></g></g></g><g id="f"><g transform="translate(178.528,272.327)"><animateTransform repeatCount="indefinite" type="translate" attributeName="transform" dur="4.28s" begin="0.52s" calcMode="spline" values="178.528 272.327; 188.682 188.926; 188.682 188.926; 178.528 272.327" keyTimes="0; 0.187; 0.813; 1" keySplines="0.333 0 0.667 1; 0 0 1 1; 0.333 0 0.667 1" fill="freeze" /><g transform="rotate(-12)"><animateTransform repeatCount="indefinite" type="rotate" attributeName="transform" dur="0.24s" begin="2.235s" calcMode="spline" values="-12; 0" keyTimes="0; 1" keySplines="0 0 1 1" fill="freeze" /><g transform="scale(0.75,0.75)"><animateTransform repeatCount="indefinite" type="scale" attributeName="transform" dur="4.08s" begin="0.72s" calcMode="spline" values="0.75 0.75; 1 1; 1 1; 0.75 0.75" keyTimes="0; 0.147; 0.853; 1" keySplines="0.167 0.167 0.833 0.833; 0 0 1 1; 0.167 0.167 0.833 0.833" fill="freeze" /><g transform="translate(3.281,-17.318)"><g id="m"><g transform="translate(-7.92,-10.051)"><animateTransform repeatCount="indefinite" type="translate" attributeName="transform" dur="1.745s" begin="2.409s" calcMode="spline" values="-7.92 -10.051; -4.92 -16.551; -7.92 -10.051; -4.92 -16.551; -7.92 -10.051; -4.92 -16.551; -7.92 -10.051; -4.92 -16.551; -7.92 -10.051; -4.92 -16.551; -7.92 -10.051" keyTimes="0; 0.105; 0.2; 0.305; 0.4; 0.505; 0.6; 0.705; 0.8; 0.905; 1" keySplines="0.333 0 0.667 1; 0.333 0 0.667 1; 0.333 0 0.667 1; 0.333 0 0.667 1; 0.333 0 0.667 1; 0.333 0 0.667 1; 0.333 0 0.667 1; 0.333 0 0.667 1; 0.333 0 0.667 1; 0.333 0 0.667 1" fill="freeze" /><g transform="scale(1,1) translate(7.92,10.051)"><g transform="matrix(1,0,0,1,0,0)" id="e"><g id="G"><path fill="#ffffff" fill-opacity="1" d="M7.946,-37.553C6.845,-29.399,5.347,-22.722,1.971,-15.51C1.324,-14.12,1.511,-12.462,2.499,-11.293C2.598,-11.175,2.698,-11.057,2.8,-10.947C4.746,-8.72,7.238,-6.969,9.992,-5.892C13.265,-4.62,16.644,-4.135,20.025,-4.778C20.873,-4.935,21.663,-5.366,22.237,-6.012C27.229,-11.551,30.145,-16.961,32.228,-24.29C33.255,-27.915,34.458,-32.442,32.672,-35.91C30.735,-39.668,27.213,-42.693,23.25,-44.134C22.209,-44.515,21.118,-44.789,20.021,-44.949C17.645,-45.31,15.2,-45.178,12.873,-44.57C8.241,-43.364,8.521,-41.814,7.946,-37.553Z" /></g></g></g></g></g></g></g></g></g></g></g><g id="f"><g transform="translate(178.528,272.327)"><animateTransform repeatCount="indefinite" type="translate" attributeName="transform" dur="4.28s" begin="0.52s" calcMode="spline" values="178.528 272.327; 188.682 188.926; 188.682 188.926; 178.528 272.327" keyTimes="0; 0.187; 0.813; 1" keySplines="0.333 0 0.667 1; 0 0 1 1; 0.333 0 0.667 1" fill="freeze" /><g transform="rotate(-12)"><animateTransform repeatCount="indefinite" type="rotate" attributeName="transform" dur="0.24s" begin="2.235s" calcMode="spline" values="-12; 0" keyTimes="0; 1" keySplines="0 0 1 1" fill="freeze" /><g transform="scale(0.75,0.75)"><animateTransform repeatCount="indefinite" type="scale" attributeName="transform" dur="4.08s" begin="0.72s" calcMode="spline" values="0.75 0.75; 1 1; 1 1; 0.75 0.75" keyTimes="0; 0.147; 0.853; 1" keySplines="0.167 0.167 0.833 0.833; 0 0 1 1; 0.167 0.167 0.833 0.833" fill="freeze" /><g transform="translate(3.281,-17.318)"><g id="m"><g transform="translate(-7.92,-10.051)"><animateTransform repeatCount="indefinite" type="translate" attributeName="transform" dur="1.745s" begin="2.409s" calcMode="spline" values="-7.92 -10.051; -4.92 -16.551; -7.92 -10.051; -4.92 -16.551; -7.92 -10.051; -4.92 -16.551; -7.92 -10.051; -4.92 -16.551; -7.92 -10.051; -4.92 -16.551; -7.92 -10.051" keyTimes="0; 0.105; 0.2; 0.305; 0.4; 0.505; 0.6; 0.705; 0.8; 0.905; 1" keySplines="0.333 0 0.667 1; 0.333 0 0.667 1; 0.333 0 0.667 1; 0.333 0 0.667 1; 0.333 0 0.667 1; 0.333 0 0.667 1; 0.333 0 0.667 1; 0.333 0 0.667 1; 0.333 0 0.667 1; 0.333 0 0.667 1" fill="freeze" /><g transform="scale(1,1) translate(7.92,10.051)"><g id="e"><g transform="translate(17.59,-24.821)"><animateTransform repeatCount="indefinite" type="translate" attributeName="transform" dur="0.242s" begin="1.993s" calcMode="spline" values="17.59 -24.821; 17.59 -24.821" keyTimes="0; 1" keySplines="0 0 1 1" fill="freeze" /><g transform="scale(1,1)"><animateTransform repeatCount="indefinite" type="scale" attributeName="transform" dur="0.349s" begin="1.644s" calcMode="spline" values="1 1; 0.2 0.2; 1 1" keyTimes="0; 0.5; 1" keySplines="0.333 0 0.667 1; 0.333 0 0.667 1" fill="freeze" /><g transform="translate(-17.59,24.821)"><g id="G"><path fill="#000000" fill-opacity="1" d="M10.815,-26.623C8.876,-19.333,10.338,-12.616,14.08,-11.621C17.822,-10.626,22.427,-15.729,24.366,-23.019C26.305,-30.309,24.843,-37.027,21.101,-38.022C17.359,-39.017,12.754,-33.913,10.815,-26.623Z" /></g><g id="G"><path fill="#ffffff" fill-opacity="1" d="M14.425,-25.037C13.519,-21.631,14.202,-18.492,15.95,-18.027C17.698,-17.562,19.85,-19.947,20.756,-23.353C21.662,-26.759,20.978,-29.897,19.23,-30.362C17.482,-30.827,15.331,-28.443,14.425,-25.037Z" /></g></g></g></g></g></g></g></g></g></g></g></g></g></g><g id="f"><g transform="translate(178.528,272.327)"><animateTransform repeatCount="indefinite" type="translate" attributeName="transform" dur="4.28s" begin="0.52s" calcMode="spline" values="178.528 272.327; 188.682 188.926; 188.682 188.926; 178.528 272.327" keyTimes="0; 0.187; 0.813; 1" keySplines="0.333 0 0.667 1; 0 0 1 1; 0.333 0 0.667 1" fill="freeze" /><g transform="rotate(-12)"><animateTransform repeatCount="indefinite" type="rotate" attributeName="transform" dur="0.24s" begin="2.235s" calcMode="spline" values="-12; 0" keyTimes="0; 1" keySplines="0 0 1 1" fill="freeze" /><g transform="scale(0.75,0.75)"><animateTransform repeatCount="indefinite" type="scale" attributeName="transform" dur="4.08s" begin="0.72s" calcMode="spline" values="0.75 0.75; 1 1; 1 1; 0.75 0.75" keyTimes="0; 0.147; 0.853; 1" keySplines="0.167 0.167 0.833 0.833; 0 0 1 1; 0.167 0.167 0.833 0.833" fill="freeze" /><g transform="translate(3.281,-17.318)"><g id="m"><g transform="translate(-7.92,-10.051)"><animateTransform repeatCount="indefinite" type="translate" attributeName="transform" dur="1.745s" begin="2.409s" calcMode="spline" values="-7.92 -10.051; -4.92 -16.551; -7.92 -10.051; -4.92 -16.551; -7.92 -10.051; -4.92 -16.551; -7.92 -10.051; -4.92 -16.551; -7.92 -10.051; -4.92 -16.551; -7.92 -10.051" keyTimes="0; 0.105; 0.2; 0.305; 0.4; 0.505; 0.6; 0.705; 0.8; 0.905; 1" keySplines="0.333 0 0.667 1; 0.333 0 0.667 1; 0.333 0 0.667 1; 0.333 0 0.667 1; 0.333 0 0.667 1; 0.333 0 0.667 1; 0.333 0 0.667 1; 0.333 0 0.667 1; 0.333 0 0.667 1; 0.333 0 0.667 1" fill="freeze" /><g transform="scale(1,1) translate(7.92,10.051)"><g id="e"><g transform="translate(-26.91,-17.821)"><g transform="scale(1,1)"><animateTransform repeatCount="indefinite" type="scale" attributeName="transform" dur="0.209s" begin="2.235s" calcMode="spline" values="1 1; 0 0" keyTimes="0; 1" keySplines="0.167 0.167 0.833 0.833" fill="freeze" /><g transform="translate(-10.59,5.821)"><g id="e"><g transform="translate(15.59,-22.821)"><animateTransform repeatCount="indefinite" type="translate" attributeName="transform" dur="0.242s" begin="1.993s" calcMode="spline" values="15.59 -22.821; 15.59 -22.821" keyTimes="0; 1" keySplines="0 0 1 1" fill="freeze" /><g transform="scale(1,1)"><animateTransform repeatCount="indefinite" type="scale" attributeName="transform" dur="0.349s" begin="1.644s" calcMode="spline" values="1 1; 0.2 0.2; 1 1" keyTimes="0; 0.5; 1" keySplines="0.333 0 0.667 1; 0.333 0 0.667 1" fill="freeze" /><g transform="translate(-17.59,24.821)"><g id="G"><path fill="#000000" fill-opacity="1" d="M10.815,-26.623C8.876,-19.333,10.338,-12.616,14.08,-11.621C17.822,-10.626,22.427,-15.729,24.366,-23.019C26.305,-30.309,24.843,-37.027,21.101,-38.022C17.359,-39.017,12.754,-33.913,10.815,-26.623Z" /></g><g id="G"><path fill="#ffffff" fill-opacity="1" d="M14.425,-25.037C13.519,-21.631,14.202,-18.492,15.95,-18.027C17.698,-17.562,19.85,-19.947,20.756,-23.353C21.662,-26.759,20.978,-29.897,19.23,-30.362C17.482,-30.827,15.331,-28.443,14.425,-25.037Z" /></g></g></g></g></g></g></g></g></g></g></g></g></g></g></g></g></g><g id="f"><g transform="translate(178.528,272.327)"><animateTransform repeatCount="indefinite" type="translate" attributeName="transform" dur="4.28s" begin="0.52s" calcMode="spline" values="178.528 272.327; 188.682 188.926; 188.682 188.926; 178.528 272.327" keyTimes="0; 0.187; 0.813; 1" keySplines="0.333 0 0.667 1; 0 0 1 1; 0.333 0 0.667 1" fill="freeze" /><g transform="rotate(-12)"><animateTransform repeatCount="indefinite" type="rotate" attributeName="transform" dur="0.24s" begin="2.235s" calcMode="spline" values="-12; 0" keyTimes="0; 1" keySplines="0 0 1 1" fill="freeze" /><g transform="scale(0.75,0.75)"><animateTransform repeatCount="indefinite" type="scale" attributeName="transform" dur="4.08s" begin="0.72s" calcMode="spline" values="0.75 0.75; 1 1; 1 1; 0.75 0.75" keyTimes="0; 0.147; 0.853; 1" keySplines="0.167 0.167 0.833 0.833; 0 0 1 1; 0.167 0.167 0.833 0.833" fill="freeze" /><g transform="translate(3.281,-17.318)"><g id="m"><g transform="translate(-7.92,-10.051)"><animateTransform repeatCount="indefinite" type="translate" attributeName="transform" dur="1.745s" begin="2.409s" calcMode="spline" values="-7.92 -10.051; -4.92 -16.551; -7.92 -10.051; -4.92 -16.551; -7.92 -10.051; -4.92 -16.551; -7.92 -10.051; -4.92 -16.551; -7.92 -10.051; -4.92 -16.551; -7.92 -10.051" keyTimes="0; 0.105; 0.2; 0.305; 0.4; 0.505; 0.6; 0.705; 0.8; 0.905; 1" keySplines="0.333 0 0.667 1; 0.333 0 0.667 1; 0.333 0 0.667 1; 0.333 0 0.667 1; 0.333 0 0.667 1; 0.333 0 0.667 1; 0.333 0 0.667 1; 0.333 0 0.667 1; 0.333 0 0.667 1; 0.333 0 0.667 1" fill="freeze" /><g transform="scale(1,1) translate(7.92,10.051)"><g id="e"><g transform="translate(-26.91,-17.821)"><g transform="scale(1,1)"><animateTransform repeatCount="indefinite" type="scale" attributeName="transform" dur="0.209s" begin="2.235s" calcMode="spline" values="1 1; 0 0" keyTimes="0; 1" keySplines="0.167 0.167 0.833 0.833" fill="freeze" /><g transform="translate(-10.59,5.821)"><g transform="matrix(1,0,0,1,0,0)" id="m"><g id="G"><path fill="#ffffff" fill-opacity="1" d="M7.946,-37.553C6.845,-29.399,5.347,-22.722,1.971,-15.51C1.324,-14.12,1.511,-12.462,2.499,-11.293C2.598,-11.175,2.698,-11.057,2.8,-10.947C4.746,-8.72,7.238,-6.969,9.992,-5.892C13.265,-4.62,16.644,-4.135,20.025,-4.778C20.873,-4.935,21.663,-5.366,22.237,-6.012C27.229,-11.551,30.145,-16.961,32.228,-24.29C33.255,-27.915,34.458,-32.442,32.672,-35.91C30.735,-39.668,27.213,-42.693,23.25,-44.134C22.209,-44.515,21.118,-44.789,20.021,-44.949C17.645,-45.31,15.2,-45.178,12.873,-44.57C8.241,-43.364,8.521,-41.814,7.946,-37.553Z" /></g></g></g></g></g></g></g></g></g></g></g></g></g></g><g id="f"><g transform="translate(178.528,272.327)"><animateTransform repeatCount="indefinite" type="translate" attributeName="transform" dur="4.28s" begin="0.52s" calcMode="spline" values="178.528 272.327; 188.682 188.926; 188.682 188.926; 178.528 272.327" keyTimes="0; 0.187; 0.813; 1" keySplines="0.333 0 0.667 1; 0 0 1 1; 0.333 0 0.667 1" fill="freeze" /><g transform="rotate(-12)"><animateTransform repeatCount="indefinite" type="rotate" attributeName="transform" dur="0.24s" begin="2.235s" calcMode="spline" values="-12; 0" keyTimes="0; 1" keySplines="0 0 1 1" fill="freeze" /><g transform="scale(0.75,0.75)"><animateTransform repeatCount="indefinite" type="scale" attributeName="transform" dur="4.08s" begin="0.72s" calcMode="spline" values="0.75 0.75; 1 1; 1 1; 0.75 0.75" keyTimes="0; 0.147; 0.853; 1" keySplines="0.167 0.167 0.833 0.833; 0 0 1 1; 0.167 0.167 0.833 0.833" fill="freeze" /><g transform="translate(3.281,-17.318)"><g id="m"><g transform="translate(-7.92,-10.051)"><animateTransform repeatCount="indefinite" type="translate" attributeName="transform" dur="1.745s" begin="2.409s" calcMode="spline" values="-7.92 -10.051; -4.92 -16.551; -7.92 -10.051; -4.92 -16.551; -7.92 -10.051; -4.92 -16.551; -7.92 -10.051; -4.92 -16.551; -7.92 -10.051; -4.92 -16.551; -7.92 -10.051" keyTimes="0; 0.105; 0.2; 0.305; 0.4; 0.505; 0.6; 0.705; 0.8; 0.905; 1" keySplines="0.333 0 0.667 1; 0.333 0 0.667 1; 0.333 0 0.667 1; 0.333 0 0.667 1; 0.333 0 0.667 1; 0.333 0 0.667 1; 0.333 0 0.667 1; 0.333 0 0.667 1; 0.333 0 0.667 1; 0.333 0 0.667 1" fill="freeze" /><g transform="scale(1,1) translate(7.92,10.051)"><g id="e"><g transform="translate(-26.91,-17.821)"><g transform="scale(1,1)"><animateTransform repeatCount="indefinite" type="scale" attributeName="transform" dur="0.209s" begin="2.235s" calcMode="spline" values="1 1; 0 0" keyTimes="0; 1" keySplines="0.167 0.167 0.833 0.833" fill="freeze" /><g transform="translate(-10.59,5.821)"><g transform="matrix(1,0,0,1,0,0)" id="e"><g id="G"><path fill="#232428" fill-opacity="1" d="M24.775,-43.028C41.5,-39.25,27.5,-10.75,32.978,-23.54C34.461,-27.003,34.458,-32.442,32.672,-35.91C30.735,-39.668,27.213,-42.693,23.25,-44.134C22.209,-44.515,21.118,-44.789,20.021,-44.949C17.645,-45.31,15.2,-45.178,12.873,-44.57C8.241,-43.364,10.681,-46.211,24.775,-43.028Z" /></g></g></g></g></g></g></g></g></g></g></g></g></g></g><g id="f"><g transform="translate(178.528,272.327)"><animateTransform repeatCount="indefinite" type="translate" attributeName="transform" dur="4.28s" begin="0.52s" calcMode="spline" values="178.528 272.327; 188.682 188.926; 188.682 188.926; 178.528 272.327" keyTimes="0; 0.187; 0.813; 1" keySplines="0.333 0 0.667 1; 0 0 1 1; 0.333 0 0.667 1" fill="freeze" /><g transform="rotate(-12)"><animateTransform repeatCount="indefinite" type="rotate" attributeName="transform" dur="0.24s" begin="2.235s" calcMode="spline" values="-12; 0" keyTimes="0; 1" keySplines="0 0 1 1" fill="freeze" /><g transform="scale(0.75,0.75)"><animateTransform repeatCount="indefinite" type="scale" attributeName="transform" dur="4.08s" begin="0.72s" calcMode="spline" values="0.75 0.75; 1 1; 1 1; 0.75 0.75" keyTimes="0; 0.147; 0.853; 1" keySplines="0.167 0.167 0.833 0.833; 0 0 1 1; 0.167 0.167 0.833 0.833" fill="freeze" /><g transform="translate(3.281,-17.318)"><g id="m"><g transform="translate(-7.92,-10.051)"><animateTransform repeatCount="indefinite" type="translate" attributeName="transform" dur="1.745s" begin="2.409s" calcMode="spline" values="-7.92 -10.051; -4.92 -16.551; -7.92 -10.051; -4.92 -16.551; -7.92 -10.051; -4.92 -16.551; -7.92 -10.051; -4.92 -16.551; -7.92 -10.051; -4.92 -16.551; -7.92 -10.051" keyTimes="0; 0.105; 0.2; 0.305; 0.4; 0.505; 0.6; 0.705; 0.8; 0.905; 1" keySplines="0.333 0 0.667 1; 0.333 0 0.667 1; 0.333 0 0.667 1; 0.333 0 0.667 1; 0.333 0 0.667 1; 0.333 0 0.667 1; 0.333 0 0.667 1; 0.333 0 0.667 1; 0.333 0 0.667 1; 0.333 0 0.667 1" fill="freeze" /><g transform="scale(1,1) translate(7.92,10.051)"><g id="e"><g transform="translate(-14.32,-52.287)"><animateTransform repeatCount="indefinite" type="translate" attributeName="transform" dur="0.209s" begin="2.2; 0" calcMode="spline" values="-14.32 -52.287; -22.32 -26.787" keyTimes="0; 1" keySplines="0.333 0 0.667 1" fill="freeze" /><g transform="rotate(0)"><animateTransform repeatCount="indefinite" type="rotate" attributeName="transform" dur="0.209s" begin="2.2s" calcMode="spline" values="0; 38" keyTimes="0; 1" keySplines="0.333 0 0.667 1" fill="freeze" /><g transform="scale(1,1)"><animateTransform repeatCount="indefinite" type="scale" attributeName="transform" dur="0.209s" begin="2.2s" calcMode="spline" values="1 1; 1 -1.07" keyTimes="0; 1" keySplines="0.333 0 0.667 1" fill="freeze" /><g transform="translate(-23.18,40.287)"><g id="e"><g transform="translate(15.59,-22.821)"><animateTransform repeatCount="indefinite" type="translate" attributeName="transform" dur="0.242s" begin="1.993s" calcMode="spline" values="15.59 -22.821; 15.59 -22.821" keyTimes="0; 1" keySplines="0 0 1 1" fill="freeze" /><g transform="scale(1,1)"><animateTransform repeatCount="indefinite" type="scale" attributeName="transform" dur="0.349s" begin="1.644s" calcMode="spline" values="1 1; 0.2 0.2; 1 1" keyTimes="0; 0.5; 1" keySplines="0.333 0 0.667 1; 0.333 0 0.667 1" fill="freeze" /><g transform="translate(-17.59,24.821)"><g id="G"><path fill="#000000" fill-opacity="1" d="M10.815,-26.623C8.876,-19.333,10.338,-12.616,14.08,-11.621C17.822,-10.626,22.427,-15.729,24.366,-23.019C26.305,-30.309,24.843,-37.027,21.101,-38.022C17.359,-39.017,12.754,-33.913,10.815,-26.623Z" /></g><g id="G"><path fill="#ffffff" fill-opacity="1" d="M14.425,-25.037C13.519,-21.631,14.202,-18.492,15.95,-18.027C17.698,-17.562,19.85,-19.947,20.756,-23.353C21.662,-26.759,20.978,-29.897,19.23,-30.362C17.482,-30.827,15.331,-28.443,14.425,-25.037Z" /></g></g></g></g></g></g></g></g></g></g></g></g></g></g></g></g></g></g></g></g></g></g><g transform="matrix(1,0,0,1,175,175)" id="R"><g id="G"><path fill="#ffd4c4" fill-opacity="1" d="M-50.799,-9.435L-37.63,-43.391L62.89,-42.793L83.474,-42.668L69.716,-9.435L-50.799,-9.435Z" /></g><g id="G"><path fill="#c16a48" fill-opacity="1" d="M-50.799,-9.435L-40.036,-56.526L60.25,-55.697L62.886,-42.8L-37.63,-43.398L-50.799,-9.435Z" /></g><g id="G"><path fill="#d38e6e" fill-opacity="1" d="M-50.799,-9.432L-35.7,-100L51.171,-100L60.25,-55.694L62.886,-42.797L-37.63,-43.395L-50.799,-9.432Z" /></g><g id="G"><path fill="#c16a48" fill-opacity="1" d="M-70.723,-40.16L-69.514,-46.045L-62.501,-80.266L-35.7,-100L-50.799,-9.432L-54.877,-45.406L-70.723,-40.16Z" /></g><g id="G"><path fill="#ffd4c4" fill-opacity="1" d="M-83.474,-35.929L-70.719,-40.161L-54.878,-45.406L-50.8,-9.435L-77.015,-9.435L-83.474,-35.929Z" /></g><g id="G"><path fill="#a34224" fill-opacity="1" d="M-70.723,-40.16L-69.514,-46.045L-65.831,-47.486L-49.155,-53.982L-50.799,-9.432L-54.877,-45.406L-70.723,-40.16Z" /></g></g></svg>
